<svg id="Layer_1" data-name="Layer 1" xmlns="http://www.w3.org/2000/svg" xmlns:xlink="http://www.w3.org/1999/xlink" viewBox="0 0 1246.5 330.4"><defs><linearGradient id="linear-gradient" x1="118.38" y1="612.36" x2="323.87" y2="297.38" gradientTransform="translate(0 -70)" gradientUnits="userSpaceOnUse"><stop offset="0" stop-color="#004e73"/><stop offset="1" stop-color="#00a1b0"/></linearGradient></defs><title>splash(2)</title><g id="Ebene_1" data-name="Ebene 1"><path d="M431.5,442.1Z" transform="translate(-17 -195)" fill="#c90012"/><path d="M431.5,359.2Z" transform="translate(-17 -195)" fill="#c90012"/><path d="M431.5,276.3Z" transform="translate(-17 -195)" fill="#c90012"/><path d="M431.5,317.8Z" transform="translate(-17 -195)" fill="#c90012"/><path d="M431.5,483.5Z" transform="translate(-17 -195)" fill="#c90012"/><path d="M431.5,400.6Z" transform="translate(-17 -195)" fill="#c90012"/><path d="M431.5,234.8Z" transform="translate(-17 -195)" fill="#c90012"/><path d="M431.5,246a11.14,11.14,0,0,0-11.1-11.1H69.6c-6.1,0-14.6,3.5-19,7.9L24.9,268.5c-4.3,4.3-7.9,12.9-7.9,19V514a11.14,11.14,0,0,0,11.1,11.1H379c6.1,0,14.6-3.5,19-7.9l25.7-25.7c4.3-4.3,7.9-12.9,7.9-19Z" transform="translate(-17 -195)" fill="url(#linear-gradient)"/><path d="M558.6,326.6a31,31,0,0,1-28.7,19h-8.5a30.74,30.74,0,0,1-12.1-2.4,29.4,29.4,0,0,1-9.9-6.7,30.63,30.63,0,0,1-9.1-22V266.6a30.74,30.74,0,0,1,2.4-12.1,29.4,29.4,0,0,1,6.7-9.9,30.63,30.63,0,0,1,22-9.1h8.5A31,31,0,0,1,561,266.6v25H502.9v23.6a17.19,17.19,0,0,0,1.5,7.2,21.62,21.62,0,0,0,3.9,5.9,16.89,16.89,0,0,0,5.9,3.9,17.14,17.14,0,0,0,7.2,1.4h8.5a18.86,18.86,0,0,0,7.2-1.4,21.62,21.62,0,0,0,5.9-3.9,16.89,16.89,0,0,0,3.9-5.9,17.19,17.19,0,0,0,1.5-7.2v-7l12.7,2.1v4.2A33.12,33.12,0,0,1,558.6,326.6Zm-10.3-60.7a17.19,17.19,0,0,0-1.5-7.2,21.62,21.62,0,0,0-3.9-5.9,16.89,16.89,0,0,0-5.9-3.9,17.14,17.14,0,0,0-7.2-1.4h-8.5a18.86,18.86,0,0,0-7.2,1.4,21.62,21.62,0,0,0-5.9,3.9,16.89,16.89,0,0,0-3.9,5.9,17.19,17.19,0,0,0-1.5,7.2v15.7h45.4l.1-15.7Z" transform="translate(-17 -195)" fill="#fff"/><path d="M698.5,343.5V265.8a17.19,17.19,0,0,0-1.5-7.2,21.62,21.62,0,0,0-3.9-5.9,16.89,16.89,0,0,0-5.9-3.9,17.14,17.14,0,0,0-7.2-1.4h-6.3a18.86,18.86,0,0,0-7.2,1.4,21.62,21.62,0,0,0-5.9,3.9,18.66,18.66,0,0,0-4,5.9,17.14,17.14,0,0,0-1.4,7.2v77.7H642.6V265.8a18.85,18.85,0,0,0-1.4-7.2,19.86,19.86,0,0,0-4-5.9,17.86,17.86,0,0,0-5.9-3.9,17.14,17.14,0,0,0-7.2-1.4h-6.3a18.86,18.86,0,0,0-7.2,1.4,21.62,21.62,0,0,0-5.9,3.9,16.89,16.89,0,0,0-3.9,5.9,17.19,17.19,0,0,0-1.5,7.2v77.7H586.6v-106h4.2l6.9,10.8a31.92,31.92,0,0,1,10.9-9.4,30.55,30.55,0,0,1,14.3-3.5h1a30.52,30.52,0,0,1,16.3,4.5,30.93,30.93,0,0,1,11.2,11.8,28.29,28.29,0,0,1,4.9-6.6,31,31,0,0,1,14.1-8.4,30.8,30.8,0,0,1,8.6-1.2h1a31,31,0,0,1,31.1,31.1v77l-12.6-.1Z" transform="translate(-17 -195)" fill="#fff"/><path d="M803.3,343.5l-7-10.8a31.92,31.92,0,0,1-10.9,9.4,30,30,0,0,1-14.3,3.5h-3.2a30.74,30.74,0,0,1-12.1-2.4,29.4,29.4,0,0,1-9.9-6.7,30.63,30.63,0,0,1-9.1-22v-77h12.7v77.7a18.85,18.85,0,0,0,1.4,7.2,21.62,21.62,0,0,0,3.9,5.9,16.89,16.89,0,0,0,5.9,3.9,17.14,17.14,0,0,0,7.2,1.4h8.5a19.24,19.24,0,0,0,7.2-1.4,21.62,21.62,0,0,0,5.9-3.9,16.89,16.89,0,0,0,3.9-5.9,17.19,17.19,0,0,0,1.5-7.2V237.5h12.7V343.6h-4.3Z" transform="translate(-17 -195)" fill="#fff"/><path d="M837.3,343.5V195H850V343.5Z" transform="translate(-17 -195)" fill="#fff"/><path d="M946.4,343.5l-7-10.6a32.48,32.48,0,0,1-10.9,9.2,30,30,0,0,1-14.3,3.5H911a30.74,30.74,0,0,1-12.1-2.4,29.4,29.4,0,0,1-9.9-6.7,30.63,30.63,0,0,1-9.1-22v-1a30.74,30.74,0,0,1,2.4-12.1,29.4,29.4,0,0,1,6.7-9.9,30.63,30.63,0,0,1,22-9.1h26.9V266a17.19,17.19,0,0,0-1.5-7.2,21.62,21.62,0,0,0-3.9-5.9,16.89,16.89,0,0,0-5.9-3.9,17.14,17.14,0,0,0-7.2-1.4H912a18.86,18.86,0,0,0-7.2,1.4,21.62,21.62,0,0,0-5.9,3.9,16.89,16.89,0,0,0-3.9,5.9,17.19,17.19,0,0,0-1.5,7.2v3.8l-12.7-2.1v-1a31,31,0,0,1,31.1-31.1h7.5a31,31,0,0,1,31.1,31.1v77l-4.1-.2Zm-8.5-51.3H911a17.19,17.19,0,0,0-7.2,1.5,19.86,19.86,0,0,0-5.9,4,17.86,17.86,0,0,0-3.9,5.9,17.19,17.19,0,0,0-1.5,7.2v4.5a17.19,17.19,0,0,0,1.5,7.2,21.62,21.62,0,0,0,3.9,5.9,16.89,16.89,0,0,0,5.9,3.9,17.14,17.14,0,0,0,7.2,1.4h8.5a18.86,18.86,0,0,0,7.2-1.4,21.62,21.62,0,0,0,5.9-3.9,16.89,16.89,0,0,0,3.9-5.9,17.19,17.19,0,0,0,1.5-7.2l-.1-23.1Z" transform="translate(-17 -195)" fill="#fff"/><path d="M1014.8,343.5a26.55,26.55,0,0,1-10.9-2.2,29.07,29.07,0,0,1-8.9-6,30.33,30.33,0,0,1-6-8.9,26.55,26.55,0,0,1-2.2-10.9v-66H967.7V237.4h19.1V212l12.7-2.1v27.6h26.9v12.1H999.5v66.6a15.31,15.31,0,0,0,1.2,6,15.82,15.82,0,0,0,3.3,4.8,15.12,15.12,0,0,0,4.9,3.3,15.31,15.31,0,0,0,6,1.2h11.6v12.1l-11.7-.1Z" transform="translate(-17 -195)" fill="#fff"/><path d="M1053,212V195h14.8v17Zm1,131.5v-106h12.7V343.6H1054Z" transform="translate(-17 -195)" fill="#fff"/><path d="M1164.9,326.6a31,31,0,0,1-28.7,19h-8.5a30.74,30.74,0,0,1-12.1-2.4,29.4,29.4,0,0,1-9.9-6.7,30.63,30.63,0,0,1-9.1-22V266.6a30.74,30.74,0,0,1,2.4-12.1,29.4,29.4,0,0,1,6.7-9.9,30.63,30.63,0,0,1,22-9.1h8.5a31,31,0,0,1,31.1,31.1v47.9A27.86,27.86,0,0,1,1164.9,326.6Zm-10.3-60.7a18.85,18.85,0,0,0-1.4-7.2,21.62,21.62,0,0,0-3.9-5.9,16.89,16.89,0,0,0-5.9-3.9,17.14,17.14,0,0,0-7.2-1.4h-8.5a18.85,18.85,0,0,0-7.2,1.4,21.63,21.63,0,0,0-5.9,3.9,16.89,16.89,0,0,0-3.9,5.9,17.14,17.14,0,0,0-1.4,7.2v49.3a18.85,18.85,0,0,0,1.4,7.2,21.62,21.62,0,0,0,3.9,5.9,16.89,16.89,0,0,0,5.9,3.9,17.14,17.14,0,0,0,7.2,1.4h8.5a18.85,18.85,0,0,0,7.2-1.4,21.62,21.62,0,0,0,5.9-3.9,16.89,16.89,0,0,0,3.9-5.9,17.14,17.14,0,0,0,1.4-7.2Z" transform="translate(-17 -195)" fill="#fff"/><path d="M1251,343.5V265.8a17.19,17.19,0,0,0-1.5-7.2,21.62,21.62,0,0,0-3.9-5.9,16.89,16.89,0,0,0-5.9-3.9,17.14,17.14,0,0,0-7.2-1.4H1224a18.85,18.85,0,0,0-7.2,1.4,21.63,21.63,0,0,0-5.9,3.9,16.89,16.89,0,0,0-3.9,5.9,17.14,17.14,0,0,0-1.4,7.2v77.7h-12.7v-106h4.2l6.9,10.8a31.92,31.92,0,0,1,10.9-9.4,30.55,30.55,0,0,1,14.3-3.5h3.2a31,31,0,0,1,31.1,31.1v77Z" transform="translate(-17 -195)" fill="#fff"/><path d="M563.1,496.3a27.21,27.21,0,0,1-2.6,11.8,28.84,28.84,0,0,1-7,9.2,34,34,0,0,1-10.3,6,36.13,36.13,0,0,1-12.3,2.1h-8.5a32.52,32.52,0,0,1-22.6-9.1,31.76,31.76,0,0,1-7-9.9,27.73,27.73,0,0,1-2.6-12.1v-4.2l12.7-2.1v7a15.84,15.84,0,0,0,1.6,7.2,20.82,20.82,0,0,0,4.3,5.9A19.13,19.13,0,0,0,515,512a18.4,18.4,0,0,0,7.4,1.4h8.5a26,26,0,0,0,7.4-1.1,23.64,23.64,0,0,0,6.3-3.3,16.58,16.58,0,0,0,4.4-5.1,13.94,13.94,0,0,0,1.6-6.8c0-3.8-.8-6.9-2.5-9.3a22.79,22.79,0,0,0-6.6-6.1,39.5,39.5,0,0,0-9.3-4c-3.5-1.1-7.1-2.1-10.7-3.2s-7.2-2.3-10.7-3.7a35.44,35.44,0,0,1-9.3-5.4,26.22,26.22,0,0,1-6.6-8.4,28,28,0,0,1-2.5-12.6,27.15,27.15,0,0,1,2.5-11.8,29.49,29.49,0,0,1,6.7-9.2,30.88,30.88,0,0,1,9.9-6,34.59,34.59,0,0,1,12.1-2.1h7.5a30.63,30.63,0,0,1,22,9.1,30.31,30.31,0,0,1,6.7,10,30.74,30.74,0,0,1,2.4,12.1v.4L549.5,449v-3.2a17.53,17.53,0,0,0-1.5-7.2,21.62,21.62,0,0,0-3.9-5.9,16.89,16.89,0,0,0-5.9-3.9,17.19,17.19,0,0,0-7.2-1.5h-7.5a23.62,23.62,0,0,0-7.2,1.1,20,20,0,0,0-5.9,3.3,13.93,13.93,0,0,0-3.9,5.1,16.88,16.88,0,0,0,1,15.8,22.19,22.19,0,0,0,6.6,5.9,44.13,44.13,0,0,0,9.3,4c3.5,1.1,7,2.2,10.7,3.3a105.51,105.51,0,0,1,10.7,3.9,33.4,33.4,0,0,1,9.3,5.6,26,26,0,0,1,6.6,8.6C562.3,487,563.1,491.2,563.1,496.3Z" transform="translate(-17 -195)" fill="#fff"/><path d="M626.2,523.2a26.55,26.55,0,0,1-10.9-2.2,29.07,29.07,0,0,1-8.9-6,30.33,30.33,0,0,1-6-8.9,26.55,26.55,0,0,1-2.2-10.9v-66H579.1V417.1h19.1V391.6l12.7-2.1v27.6h26.9v12.1H610.9v66.6a15.31,15.31,0,0,0,1.2,6,15.82,15.82,0,0,0,3.3,4.8,15.12,15.12,0,0,0,4.9,3.3,15.31,15.31,0,0,0,6,1.2h11.6v12.1Z" transform="translate(-17 -195)" fill="#fff"/><path d="M727.8,523.2l-7-10.6a32.48,32.48,0,0,1-10.9,9.2,30.25,30.25,0,0,1-14.3,3.5h-3.2a30.74,30.74,0,0,1-12.1-2.4,29.4,29.4,0,0,1-9.9-6.7,30.63,30.63,0,0,1-9.1-22v-1a30.74,30.74,0,0,1,2.4-12.1,29.4,29.4,0,0,1,6.7-9.9,30.63,30.63,0,0,1,22-9.1h26.9V445.7a19.24,19.24,0,0,0-1.4-7.2,21.62,21.62,0,0,0-3.9-5.9,16.89,16.89,0,0,0-5.9-3.9,17.19,17.19,0,0,0-7.2-1.5h-7.5a17.19,17.19,0,0,0-7.2,1.5,21.62,21.62,0,0,0-5.9,3.9,16.89,16.89,0,0,0-3.9,5.9,17.19,17.19,0,0,0-1.5,7.2v3.8l-12.7-2.1v-1a31,31,0,0,1,31.1-31.2h7.5a30.63,30.63,0,0,1,22,9.1,30.31,30.31,0,0,1,6.7,10,30.74,30.74,0,0,1,2.4,12.1v77l-4.1-.2Zm-8.5-51.4H692.4a18.86,18.86,0,0,0-7.2,1.4,19.86,19.86,0,0,0-5.9,4,17.86,17.86,0,0,0-3.9,5.9,17.19,17.19,0,0,0-1.5,7.2v4.4a17.19,17.19,0,0,0,1.5,7.2,21.62,21.62,0,0,0,3.9,5.9,16.89,16.89,0,0,0,5.9,3.9,17.14,17.14,0,0,0,7.2,1.4h8.5a18.86,18.86,0,0,0,7.2-1.4,21.62,21.62,0,0,0,5.9-3.9,16.89,16.89,0,0,0,3.9-5.9,17.14,17.14,0,0,0,1.4-7.2V471.8Z" transform="translate(-17 -195)" fill="#fff"/><path d="M796.2,523.2a26.55,26.55,0,0,1-10.9-2.2,29.07,29.07,0,0,1-8.9-6,30.33,30.33,0,0,1-6-8.9,26.55,26.55,0,0,1-2.2-10.9v-66H749.1V417.1h19.1V391.6l12.7-2.1v27.6h26.9v12.1H780.9v66.6a15.31,15.31,0,0,0,1.2,6,15.82,15.82,0,0,0,3.3,4.8,15.12,15.12,0,0,0,4.9,3.3,15.31,15.31,0,0,0,6,1.2h11.6v12.1Z" transform="translate(-17 -195)" fill="#fff"/><path d="M834.4,391.6v-17h14.8v17Zm1.1,131.6V417.1h12.7V523.2Z" transform="translate(-17 -195)" fill="#fff"/><path d="M946.4,506.2a31,31,0,0,1-28.7,19h-8.5a30.74,30.74,0,0,1-12.1-2.4,29.4,29.4,0,0,1-9.9-6.7,30.63,30.63,0,0,1-9.1-22V446.2a30.74,30.74,0,0,1,2.4-12.1,32.52,32.52,0,0,1,6.7-10,30.63,30.63,0,0,1,22-9.1h8.5a30.63,30.63,0,0,1,22,9.1,30.31,30.31,0,0,1,6.7,10,30.74,30.74,0,0,1,2.4,12.1v47.9A30.74,30.74,0,0,1,946.4,506.2ZM936,445.5a17.53,17.53,0,0,0-1.5-7.2,21.62,21.62,0,0,0-3.9-5.9,16.89,16.89,0,0,0-5.9-3.9,17.19,17.19,0,0,0-7.2-1.5H909a17.19,17.19,0,0,0-7.2,1.5,21.62,21.62,0,0,0-5.9,3.9,16.89,16.89,0,0,0-3.9,5.9,17.14,17.14,0,0,0-1.4,7.2v49.3A18.85,18.85,0,0,0,892,502a21.62,21.62,0,0,0,3.9,5.9,16.89,16.89,0,0,0,5.9,3.9,17.14,17.14,0,0,0,7.2,1.4h8.5a18.86,18.86,0,0,0,7.2-1.4,21.62,21.62,0,0,0,5.9-3.9,16.89,16.89,0,0,0,3.9-5.9,17.19,17.19,0,0,0,1.5-7.2Z" transform="translate(-17 -195)" fill="#fff"/><path d="M1032.4,523.2V445.5a19.24,19.24,0,0,0-1.4-7.2,21.62,21.62,0,0,0-3.9-5.9,16.89,16.89,0,0,0-5.9-3.9,17.19,17.19,0,0,0-7.2-1.5h-8.5a17.19,17.19,0,0,0-7.2,1.5,21.62,21.62,0,0,0-5.9,3.9,16.89,16.89,0,0,0-3.9,5.9,17.19,17.19,0,0,0-1.5,7.2v77.7H974.3V417.1h4.2l6.9,10.8a31.92,31.92,0,0,1,10.9-9.4,30.55,30.55,0,0,1,14.3-3.5h3.2a30.63,30.63,0,0,1,22,9.1,30.31,30.31,0,0,1,6.7,10,30.74,30.74,0,0,1,2.4,12.1v77Z" transform="translate(-17 -195)" fill="#fff"/><path d="M245.74,258.74c-3.5,3.11-4.63,6.55-4.27,12.92.25,5.14,1.53,9.6,3,10.81.72.61,1.07.4,1.68-.74.76-1.42.92-1.42,2.74-.54,2,.88,3.82.74,5-.48.4-.4.92-.21,1.53.74.46.81,1.17,1.42,1.57,1.42.87,0,2-3.86,3-9.74.66-4.26.66-5-.1-7.57-1.74-6-4.94-9.06-9.26-9.06C248.74,256.57,247.62,257,245.74,258.74Zm8.45-.47a10.81,10.81,0,0,1,4.48,5.82c1.12,2.9,1.17,3.25.46,3.25-.25,0-.51-.67-.51-1.42,0-1.29-.21-1.42-1.89-.94-1.07.27-2,.74-2.09,1.08a1.21,1.21,0,0,1-1.17.61c-1.07,0-1.12.21-.66,3.32.21,1.42.61,2.09,1.21,2.09a1.18,1.18,0,0,0,1.12-.61c.1-.34,1.12-.81,2.34-1.08,1.89-.4,2.14-.34,2.14.81a51.5,51.5,0,0,1-2.14,9.87c-.46,1.21-.56,1.21-1.48-.14-1.07-1.55-2.25-1.83-2.74-.74-.4.88-2.74.88-4.84-.14-1.53-.67-1.78-.61-2.54.67s-.92,1.35-1.63.27c-1.27-2-2-5.07-2.29-9.68l-.3-4.53,2,.14c1.83.06,2-.06,2.14-1.83.15-1.5,0-2-.87-2.3-1.53-.54-1.38-.94,1.38-3.38S251.64,256.57,254.19,258.27Z" transform="translate(-17 -195)" fill="#d4effc"/><path d="M274.28,256.7c-4.27,1.15-8.3,7-9.62,13.79-.72,3.86-.36,13,.66,17l.66,2.71,16.33.21c14.34.14,16.43,0,17-.88s.76-4.06.92-9.74c.3-11.63-.4-14.94-4-19-1.78-2-3.42-3.19-5-3.59C288.12,256.43,276.67,256.09,274.28,256.7Zm16.38,1.76c1.27.34,1.78.67,1.17.74a1.11,1.11,0,0,0-1.17,1,1.66,1.66,0,0,1-1.07,1.42,1.4,1.4,0,0,0-.81,1.75c.21.88,0,1.29-.66,1.29-.92,0-1.53,1.29-1.53,3.11,0,.67.66.94,2.34.94,2.25,0,2.34-.06,2.14-1.69-.21-1.35,0-1.69.72-1.69.56,0,1.12-.61,1.27-1.29.36-1.9,2.18-2.3,3.71-.88,2.29,2.23,3.1,6.83,2.9,16.5-.15,5.75-.4,8.92-.87,9.68s-2.65,1-16.49.88L266.49,290l-.66-2.71c-1.17-4.59-1.38-12.44-.4-16.57,1-4.32,4.48-11.16,4.78-9.34a1.33,1.33,0,0,0,1.12,1.21,1.14,1.14,0,0,1,1.12.81c.36,1.29,4.18-.21,4.38-1.69.1-.81-.15-1.15-.87-1.15s-1.07-.34-1.07-.67c0-.94-1.89-.88-2.14.06a.94.94,0,0,1-1.17.48c-.92-.27-.92-.34.25-1.21a12.87,12.87,0,0,1,3.06-1.42C277.17,257.17,287.66,257.59,290.66,258.46Z" transform="translate(-17 -195)" fill="#d4effc"/><path d="M146.43,258.67c-.1.48-.3,3.11-.51,5.82-.3,4.66-.25,4.94.87,5.47,1.78.88,26.2.94,26.61.06.61-1.35.3-11-.36-11.63-.36-.27-6.46-.54-13.54-.54C149.69,257.86,146.58,258.07,146.43,258.67Zm26.1.48c.46.34.61,2,.51,5.55l-.15,5-3.92.21c-3.31.14-4,0-4-.88a1,1,0,1,0-2,0c0,.88-1,1-6.2.94a54.63,54.63,0,0,1-8.3-.48l-2-.54.21-4.66A37.62,37.62,0,0,1,147,259C147.34,258.33,171.73,258.4,172.53,259.15Z" transform="translate(-17 -195)" fill="#d4effc"/><path d="M181.92,258.45c-1.57.94-2,1.83-3,5.07-2.25,7.91-2.54,13.12-.87,16.17.61,1.08.92,1.15,2,.54a6.87,6.87,0,0,0,2.18-3.05,10.23,10.23,0,0,1,1.32-2.63c.66-.61,8.66-.74,10.23-.27a4.51,4.51,0,0,1,2,2.77,6.84,6.84,0,0,0,2.18,3.11c1.12.74,1.42.67,2-.48,1.17-2.17,1.38-5.55.56-10.27-1.83-10.81-2.9-11.91-11.24-12C185.22,257.37,183.34,257.64,181.92,258.45Zm14.21,1.91c1.63,1.21,2.59,3.59,1.48,3.59-.3,0-.56-.61-.56-1.35,0-1-.36-1.35-1.27-1.35s-1.27.34-1.27,1.35c0,.74-.36,1.35-.76,1.35s-.76.61-.76,1.35.3,1.35.72,1.35.81.67,1,1.42c.21,1.08.56,1.35,1.32,1.08s1.07,0,1.07.61a1,1,0,0,1-1,.94,1,1,0,1,0,1,1,1,1,0,0,1,1-1,1,1,0,0,0,1-1.08,1.61,1.61,0,0,0-1-1.42c-1.17-.4-1.38-1.55-.3-1.55a1.2,1.2,0,0,0,1-.88c.21-.74,1.89,7.91,1.89,9.68a20.07,20.07,0,0,1-.76,3.11c-.66,2.09-.87,2.3-1.78,1.63a7.2,7.2,0,0,1-1.89-3.05c-1-2.63-1.74-3.05-6.41-3.05-3.16,0-3.42-.06-2.7-1.08a4.66,4.66,0,0,0,.21-4.86,3,3,0,0,0-2.18-.81c-1.38,0-1.57-.21-1.53-1.75a3.88,3.88,0,0,0-.87-2.57c-1.32-1.08-2.74.34-2.59,2.57,0,1.15-.15,1.75-.66,1.75-.92,0-.92-.06.15-3.45,1.17-4.06,3.16-5,9.66-4.94C193.38,259,194.76,259.28,196.13,260.36Z" transform="translate(-17 -195)" fill="#d4effc"/><path d="M134.18,268.94a16.37,16.37,0,0,0-.1,3.86l.15,3,3.67.21,3.67.21.36-2.43a18.3,18.3,0,0,0,0-4.06c-.3-1.63-.51-1.69-3.92-1.69C135.44,268,134.37,268.27,134.18,268.94Z" transform="translate(-17 -195)" fill="#d4effc"/><path d="M206,276.18c-1,4.19,2.74,16.17,6.81,21.57,4.43,5.88,11.44,6.7,16.74,1.9a34,34,0,0,0,7.22-11.7c2.14-6.63,2.49-13.19.72-13.19-.4,0-2.65,2.5-4.94,5.61-4.67,6.3-5.24,6.63-11,6.15-4.63-.34-6.71-1.83-10.89-7.64C207.43,274.49,206.47,273.95,206,276.18Zm4.42,3.8c3.92,5.42,6.26,7,10.74,7.37,6.56.4,7.13.14,12-6.35,3.67-4.94,4.38-5.61,4.78-4.59,1,2.23-1.27,11.37-3.86,15.88-1.21,2.23-1.32,2.23-1.32.74,0-3.52-3.21-5.34-5.2-2.9a6.09,6.09,0,0,0-.46,5.47A3.61,3.61,0,0,0,229.1,297l1.68.4-2.14,1.9a10.75,10.75,0,0,1-13.69-.06c-1-.88-1.07-1.15-.4-1.63a2.14,2.14,0,0,0,.81-1.5c0-.48.51-.81,1.12-.81a1.2,1.2,0,0,0,1.32-1.15c.15-.88-.15-1.15-1.12-1.15-.81,0-1.32.4-1.32,1s-.46,1-1.21,1-1.32.34-1.42.74c-.4,1.63-5-9.14-6-14.19-.61-3.11-.3-6.49.51-5.82A34.16,34.16,0,0,1,210.38,280Z" transform="translate(-17 -195)" fill="#d4effc"/><path d="M159.44,278.31c-.43.7-.54,3-.34,8.38l.29,7.42h-2.53c-2.38,0-2.67.26-5.1,3.29l-2.53,3.29.83,3.48c.72,3,1,3.48,1.84,3.23a71,71,0,0,1,9.32-.38h8.88l.62-3.87.62-3.8-2.4-3.26c-2.14-2.77-2.71-3.18-4.63-3.26H162.1l-.09-6.71c-.09-5.36-.34-7.87-.72-8.26C160.41,277.15,160.12,277.22,159.44,278.31Zm2,7.51.15,8,2.24.2c1.9.2,2.53.58,4.28,3l2,2.77-.58,3-.54,3-8.85.14-8.8.2-.73-2.84-.78-2.84,2.53-3.17c2.33-2.91,2.62-3.11,5-3.11H160l-.34-7.36c-.34-7.56-.24-8.79,1-8.79C161.18,277.93,161.38,279.54,161.47,285.82Z" transform="translate(-17 -195)" fill="#d4effc"/><path d="M135.25,283.48c-4.48.4-5.6,1-7.53,4-1.17,1.9-2.65,8.52-3.21,14.67l-.21,2.3h4.52a25.81,25.81,0,0,1,5.29.34c.51.27.72-.21.76-1.75,0-2.84,1.07-3.65,2.44-1.9,1.63,2,3.76,2.63,5.2,1.42a5.93,5.93,0,0,0-.72-9.26c-2.29-1.42-2.18-2.17.46-2.71,7.17-1.42,9.41-2.77,8.74-5.21S146.07,282.54,135.25,283.48Zm12.86.11c2.18.81,2.7,1.9,1.42,3.32-.66.67-7.32,2.63-9.31,2.71-1.12,0-.72,2.71.51,3.38,1,.54,1,.61-.4.61-2,.06-2.8,1.15-2.8,3.65,0,1.08-.21,1.75-.51,1.5-1-.81-2.44.4-2.74,2.37l-.25,2h-9l.21-1.9c1-7.84,1.93-12,3.25-13.94,1.12-1.63,1.42-1.83,1.48-.94,0,.67.36,1.21.76,1.21.61,0,.66.27.21,1.21-.92,2-.15,4.86,1.21,4.86.92,0,1.12.34,1.12,2.17,0,1.55.25,2.3.92,2.43,2,.54,3.42-3.72,1.48-4.4-.72-.21-.87-.81-.72-2.5.1-1.29,0-2.5-.36-2.71a3.47,3.47,0,0,1-.21-2.43c.25-1.83.15-2-1.17-2.17-1.48-.14,3.76-.67,9.72-1.08A16.23,16.23,0,0,1,148.11,283.59Z" transform="translate(-17 -195)" fill="#d4effc"/><path d="M306.22,285.41c-.29.2-.44,2-.34,3.91l.15,3.51h6.84v-7.74h-3.09A10,10,0,0,0,306.22,285.41Z" transform="translate(-17 -195)" fill="#d4effc"/><path d="M179.75,286.26c-3.1.54-4.88,2.23-5.9,5.75-.76,2.77-.76,3.11.1,5.55,1.89,5,5.85,6.89,9,4.13,2.08-1.9,8.09-1.69,11.29.4,2,1.29,2.8,1.5,3.82.94.72-.34,1.38-.54,1.42-.4.4.67,3.25-4,3.71-6.09a9.69,9.69,0,0,0-2.65-9.06c-1.57-1.5-2.09-1.55-10.08-1.55C185.81,285.92,181,286.07,179.75,286.26Zm13,1.75c-1.48,2-2.1,5.91-1.38,9l.51,2.31H188c-2.91,0-4.45.34-6.08,1.43-1.9,1.22-2.45,1.3-3.68.61a9.21,9.21,0,0,1-4-5.5c-.66-2.31.66-6.33,2.71-8.08,1.33-1.22,2.45-1.36,9.31-1.36H194Zm7.88,1.55a6.65,6.65,0,0,1,1.48,4.59c0,3.78-1,5.82-3.35,6.89-1.89.88-2.25.81-4.07-.34-2.39-1.55-3.46-4.19-3-7.51.51-3.65,2.29-5.61,5.09-5.61A4,4,0,0,1,200.66,289.56Z" transform="translate(-17 -195)" fill="#d4effc"/><path d="M177.06,290.87c-1.17,1.69-1.12,5.75,0,7.1a3.44,3.44,0,0,0,5.2-.21c2.29-3.05.56-8.12-2.7-8.12A3.22,3.22,0,0,0,177.06,290.87Z" transform="translate(-17 -195)" fill="#d4effc"/><path d="M193.55,289.91c-1.42,2-1.38,3.05.1,1.29a11.88,11.88,0,0,1,1.89-1.83c.4-.27-.25.67-1.53,2.17-2.25,2.71-2.29,2.71-1.32,4.13,1.21,1.83,1.42,1.75,3.46-.4l1.68-1.83-1.48,2.17c-1.27,1.75-1.38,2.3-.81,3.19s.51.94-.21.61c-.46-.21-.81-.61-.81-.88a3.16,3.16,0,0,0-1-1.29c-1.32-1.08-1.32.14,0,2,1.21,1.63,3.61,1.29,5.35-.81.56-.67,1.21-1.29,1.53-1.29s-.36.94-1.32,2c-1.12,1.29-1.42,1.9-.76,1.63,1.53-.67,2.85-2.43,2.59-3.45a1.2,1.2,0,0,1,.21-1.21c.76-.61.61-2.77-.25-3.72-.66-.67-1-.61-1.89.4-1.07,1.29-1.07,1.29-.51-.06a3.34,3.34,0,0,0,0-2.63c-.51-1.21-.4-1.21.87.14,1.57,1.69,2.44,1.42,1.17-.27-.46-.67-1.89-1.15-3.35-1.29C195.08,288.49,194.4,288.69,193.55,289.91Z" transform="translate(-17 -195)" fill="#d4effc"/><path d="M244.06,287.47c-1.93,1.75-4.33,12.31-3.46,15.29.56,2,2.34,2.09,3.56.21a17.24,17.24,0,0,0,1.38-2.63c.21-.74.4-.74,1.38,0s1.27.74,2-.14a2.63,2.63,0,0,1,4.22.06c.72.88,1.07.94,1.53.34,1-1.35,1.78-.94,2.44,1.21.81,2.57,2.34,3.25,3.56,1.63.87-1.15.87-1.69.3-6.22-.36-2.63-1-5.42-1.53-6.09a4.57,4.57,0,0,1-.81-2,2.52,2.52,0,0,0-.72-1.5c-.61-.67-1-.54-1.89.67s-1.57,1.5-5.44,1.35c-3.56-.14-4.48-.4-5.14-1.5C245,287.54,244.36,287.14,244.06,287.47Zm1.17,1.76c.3.67,1.78,1,5.35,1.15,4.38.27,5,.14,5.64-1,.4-.74,1-1.08,1.27-.81,1,.74.72,1.75-.4,1.75a1,1,0,0,0-1,1c0,.54-.36,1-.76,1s-.76.48-.76,1,.36,1,.76,1,.76.48.76,1a1,1,0,0,0,1,1,1,1,0,0,0,1-.94,1.63,1.63,0,0,1,1-1.29c.87-.27,1,.21,1.32,3.65.51,5.88-1.32,8-2.8,3.25-.36-1.08-1-2-1.32-2s-.72-.67-.72-1.63-.36-1.83-1-2.09c-1.17-.48-2.54.67-2.54,2.09,0,.54-.51.94-1.27.94-.92,0-1.27-.34-1.27-1.29a1.94,1.94,0,0,0-1-1.75c-1.17-.48-2.54.67-2.54,2.17a3.82,3.82,0,0,1-.51,1.75c-3.06,5-2.8,4.8-3.71,3.52a3.12,3.12,0,0,1-.66-2.3c.1-.61.4-2.63.56-4.46s.51-3,.61-2.57a1.17,1.17,0,0,0,1,.88.68.68,0,0,1,.72.67.64.64,0,0,0,.56.67c.56,0,2-1.69,2-2.37s-1.42-2.37-2-2.37a.61.61,0,0,0-.56.67.75.75,0,0,1-.76.67c-.61,0-.56-.34.15-2C244.21,288.09,244.62,287.82,245.23,289.23Z" transform="translate(-17 -195)" fill="#d4effc"/><path d="M269.32,295.73c-2,1.42-2.7,4.26-1.78,7.1s.81,3.86-.61,9.74-1.53,12.44-.21,14.67q3.21,5.18,4.67-10.75l.66-6.89H276v3a7.69,7.69,0,0,0,.66,3.65c.66.74,10.33,1.29,10.84.67A31.61,31.61,0,0,0,288,313l.3-3.52,1.83.21c1.57.21,1.83.48,1.89,1.9,0,.94.36,4.4.66,7.78.87,8.52,2.25,11,4.43,7.7,1.42-2.09,1.27-10.35-.3-15.75-1.12-3.92-1.12-4-.25-7.84,1-4.46.66-6.09-1.78-7.78-2-1.42-2.9-1.29-6.11,1-2.39,1.75-3.35,2-6.67,2s-4.27-.27-6.71-2C272.12,294.5,271.25,294.31,269.32,295.73Zm6,1.88c2.64,1.91,3.45,2.11,7.52,2.11s4.87-.22,7.63-2.18,3.29-2,4.71-1.26a7.12,7.12,0,0,1,2.34,2.39c.63,1.34.63,1.91-.05,4.58-1.06,3.94-1,5.28.32,9.87,1.64,5.5,1.69,12.82.16,14.87l-1.16,1.48-.85-1.69c-.53-1.06-1.12-4.93-1.48-9.78l-.69-8-2.54-.22c-2.34-.22-2.49-.15-2.49,1.48a36.73,36.73,0,0,1-.32,3.94l-.32,2.18H283.2c-3.07,0-5.08-.28-5.51-.85a8.91,8.91,0,0,1-.63-3.87v-3H272l-.85,8.1c-.47,4.85-1.22,8.87-1.75,10l-1,1.91-1-1.61c-1.43-2.33-1.32-8.17.32-14.58,1.54-6.06,1.59-7.18.59-10.43a5.45,5.45,0,0,1,1.85-6.48C271.9,295.22,271.9,295.22,275.29,297.61Z" transform="translate(-17 -195)" fill="#d4effc"/><path d="M301.09,298c-.4,2.17,0,6.49.72,7.45.4.54,3,.81,7.73.88,8,.14,8.09.06,8-4.86-.1-5.28.36-5-8.34-5C301.5,296.4,301.34,296.4,301.09,298Zm15.73-.27c.72,2.5-.4,3.38-3.92,3.05-1.27-.06-1.42.14-1.27,1.5s.46,1.55,2.34,1.69,2.29-.14,2.65-1.35c.25-.81.46-1.08.46-.61a5.53,5.53,0,0,1-.4,2c-.4,1-1.38,1.15-7.13,1.08-4.12-.06-6.92-.34-7.28-.81s-.25-.61.51-.34a4.75,4.75,0,0,0,2.39-.06c1.17-.4,1.32-.74,1.17-3-.15-2.43-.21-2.5-2.29-2.63s-2.18.06-2.25,1.69c0,1-.15,1.42-.3.94a7.3,7.3,0,0,1,0-2.5l.3-1.69h7.32C315.23,296.67,316.55,296.88,316.82,297.69Z" transform="translate(-17 -195)" fill="#d4effc"/><path d="M253.12,308.38c-.56,1.55-.21,46.39.36,46.86s6.92.27,7.58-.27c.87-.67.87-45.78,0-46.93-.36-.48-2-.81-4.07-.81C254.23,307.23,253.47,307.42,253.12,308.38Zm7.22.27c.4.61.57,7.37.46,23.32l-.15,22.44-3.7.21-3.74.21V343.17c0-11.11,0-11.6,1-11.6a1,1,0,0,0,1-1,1,1,0,0,0-1-1c-.82,0-1-.82-1.28-8.73a79.52,79.52,0,0,1,.15-10.71c.25-1.17.51-1.51.51-.88,0,1.7,1.59,1.56,1.59-.14,0-1.16.36-1.37,2.26-1.37A3.71,3.71,0,0,1,260.34,308.65Z" transform="translate(-17 -195)" fill="#d4effc"/><path d="M307.7,310a14.17,14.17,0,0,0-2.74,2.23,5.92,5.92,0,0,1-1.93,1.35c-1.57.67-2.09,3.86-1.63,9.81.61,7.24,1.93,11,2.74,7.57.36-1.5,1.07-1.83,4.78-2,4-.21,5.6.4,6.2,2.5.51,1.75.56,1.75,1.21.54,1-1.69,1.83-7.64,1.83-12.31,0-4-1-6.35-2.59-6.35-.46,0-1.38-.74-2-1.63C311.72,309,310,308.51,307.7,310Zm5,2c1,1.08,2,2,2.44,2,1,0,2.49,2.09,2.49,3.52,0,.67-.36,1.21-.76,1.21a.76.76,0,0,1-.76-.67.77.77,0,0,0-1.52,0,.75.75,0,0,1-.76.67c-.4,0-.76.48-.76,1s.36,1,.76,1,.76.48.76,1,.36,1,.76,1,.76-.48.76-1a1,1,0,0,1,.81-1c.72,0,.81.54.51,3.45-.4,3.72-1.74,8.58-1.78,6.49,0-1.29-1.93-2.5-3.92-2.5-.76,0-1.21-.4-1.21-1s-.36-1-.76-1a.86.86,0,0,0-.76.94c0,.61-.81,1-2.34,1.29a4.25,4.25,0,0,0-2.8,1.21c-.56,1.21-1,.54-1.53-2.57-.76-4.32-.56-10.75.36-12A2.36,2.36,0,0,1,304,314a2.42,2.42,0,0,0,1.38-.94c1.17-1.42,3.71-3.11,4.73-3.11C310.6,309.92,311.77,310.81,312.68,311.95Z" transform="translate(-17 -195)" fill="#d4effc"/><path d="M37.31,310.25c-6,1.9-9.05,9.05-7.64,17.76.89,5.67,2.82,7.9,8.63,10.2,6.33,2.42,7.06,3.11,7.06,6.34,0,2.29-.62,3.44-1.83,3.44-.84,0-1.83-2.57-1.83-4.8v-2.63H29.77v6.69c0,6.55,0,6.75,1.41,8,2.37,2.29,7.09,3.78,11.73,3.78,9.05-.06,12.8-3.52,14.17-13,.66-4.86-.15-9.67-2.12-12.7a10.54,10.54,0,0,0-6.77-5c-3.44-1.08-5.32-2.09-5-2.71.15-.27-.15-.48-.66-.4s-.92-.48-1-1.5c-.15-1.55.66-3.52,1.47-3.52s2,2.23,2,4.13v2H56.89v-11.5l-1.67-1.35C51.23,310.39,42,308.7,37.31,310.25Zm12.48,1a21.63,21.63,0,0,1,4.34,2.42c1.67,1.28,1.67,1.41,1.67,6.4v5H45v-1.95c0-2.22-1.11-4.11-2.48-4.11s-2.08,1.41-2.08,3.84c0,1.89.3,2.36,1.92,3.43A11.86,11.86,0,0,0,46.2,328c7.09,1.75,11,8.42,9.81,16.9-1.26,9-5.11,12.59-13.61,12.66-4.15.06-9-1.54-11.23-3.7-1.37-1.28-1.41-1.49-1.41-7.34v-6H40.6v2.62c0,3.76,1.57,5.53,3.87,4.38.63-.27.84-1.35.84-3.7,0-4-.47-4.45-7.07-7-3.61-1.41-5.08-2.36-6.39-4.11-1.89-2.62-3-8.15-2.51-11.91.74-4.92,4-9.3,7.9-10.51C39.94,309.47,46.48,309.95,49.79,311.22Z" transform="translate(-17 -195)" fill="#d4effc"/><path d="M59.18,313.47c0,4,.25,5.65.76,6.34.61.88.76,3.52.76,15,0,12.84.1,14.27,1.12,17a15.67,15.67,0,0,1,1,3.59c0,.34.1.4.36.21.46-.34,3.31,1.9,3,2.37s3.76.88,8.85.94c4.38,0,5.09-.21,7.17-1.83,1.32-1,2.49-1.69,2.7-1.55s.21.14,0-.14a6.21,6.21,0,0,1,.92-2.84c1.07-2.3,1.12-3.38,1.38-17,.21-12.71.36-14.88,1.17-16,.61-.94,1.1-5.47,1.1-5.47v-4.53H75.33v4.93a12.33,12.33,0,0,0,.13,5.28c.36.48,1,14.19,1,14.19v13.46l-1.92.21a1.45,1.45,0,0,1-1.63-.67c-.25-.48-.46-6.55-.46-13.52,0-10.35.15-12.79.76-13.66.51-.67.76-2.37,1.08-5.42v-4.79H59.07v3.87h.11Zm14.25,1.29c0,2.05-.25,3.76-.76,4.36-.61.88-.76,3.38-.76,14.34,0,7.3.21,13.73.46,14.19s1.12.81,2.14.67l1.91-.21V334s-.07-14.4-.43-14.88a18.43,18.43,0,0,1-.66-4.59v-4.92h13v4.52c.34,2.37,0,3.92-.52,4.8-.81,1.08-1,3.25-1.17,16-.25,13.79-.3,14.74-1.42,17.17A11.07,11.07,0,0,1,76,358.47c-6.77.61-12-2.23-13.84-7.51-.81-2.5-1-4.53-1-16.84,0-11.5-.15-14.13-.76-15-.51-.61-.76-2.3-1.4-4.74v-3.5h14.1v3.87h.28Z" transform="translate(-17 -195)" fill="#d4effc"/><path d="M90.51,314.6c-.3,3.32-.09,4.86.46,5.47s.76,3.19.76,14.34-.1,13.52-.76,13.79-.46,5.42-.46,5.42v5h15.18V354c0-2.65-.21-5-.52-5.17a3.21,3.21,0,0,1-.52-2c0-1.51.26-1.56,4.09-2,5-.48,6.65-1.3,8.91-4.09s2.72-5.46,2.72-13.76c0-7.9-1-11.45-3.72-14.1-3-2.92-4.71-3.27-15.71-3.27H89.43l1.08,5Zm21.41-3c5.21,2.32,7.19,6.76,7.24,16,0,7.64-.58,10.36-2.71,13.09s-3.91,3.62-8.86,4.1l-4.06.4v2.35a4.89,4.89,0,0,0,.54,2.63c.32.21.54,2.23.54,4.46v4H90.51v-4.36c0-3.28.21-4.44.78-4.78s.78-2.59.78-14.6-.16-14.46-.78-15.14-.78-2.11-.78-4.84v-4h9.85C106.29,310.89,110.82,311.15,111.92,311.63Z" transform="translate(-17 -195)" fill="#d4effc"/><path d="M103.53,327.43c0,7.16,0,7.51,1.07,7.51,2.59,0,3-1,3-7.45,0-3.32-.15-6.15-.36-6.3a8.93,8.93,0,0,0-2-.81l-1.68-.48v7.53Z" transform="translate(-17 -195)" fill="#d4effc"/><path d="M119.88,315c.1,4.06.31,5.28.84,5,1.1-.54,1,26.71-.16,28.73-.52,1-.74,2.71-.62,5.34l.16,3.92,7.48.21,7.42.21v-4.44c0-3.07-.2-4.83-.6-5s-.71-2.18-.81-4.83c-.15-3.61,0-4.56.51-4.56,1.88,0,2.33,1.56,2.58,9.66a70.74,70.74,0,0,0,.6,8.72c.2.4,2.78.68,6.63.68h6.28v-4.49c0-3.07-.25-4.77-.75-5.46s-.75-2.52-.75-5.86c0-4.56-.1-4.9-1.73-7s-1.67-2.18-.75-3c2-1.64,3-4.9,3-9.81,0-5.25-.71-7.62-3-10.21-2.43-2.79-4.55-3.21-15.57-3.21H119.8Zm21.62-3.41a11.73,11.73,0,0,1,5.8,6.21c1,2.45,1,9,0,11.53a12.39,12.39,0,0,1-2.06,3.28,4.75,4.75,0,0,0-1.28,1.85,12.64,12.64,0,0,0,1.8,2.65c1.75,2.19,1.8,2.45,1.8,7.09,0,3.34.21,5.11.77,5.87.51.61.77,2.32.77,4.78v3.81h-5.47c-3.59,0-6.11-.27-6.32-.67a65.25,65.25,0,0,1-.62-8.66c-.31-8.52-.68-9.6-3.18-9.6-1.25,0-1.25.06-1,5.21.1,3.25.41,5.28.83,5.47s.62,1.69.62,4.26v4.05l-6.89-.21-6.94-.21-.16-3.25a9.49,9.49,0,0,1,.62-4.66c1.2-2.23,1.25-29.21,0-30.7-.52-.67-.78-2.37-.78-4.74v-4.05h9.91C135.12,310.89,140.47,311.23,141.5,311.57Z" transform="translate(-17 -195)" fill="#d4effc"/><path d="M151.25,314c0,2.43.25,4.59.51,4.8s.51,6,.51,14.88-.21,14.61-.51,14.88-.51,2.5-.51,5.14v5h28.2V340.57H168.6V343c0,2-.35,3-1.16,3.72-2.09,2-3.17-3.32-3.17-3.32v-4.21l3.82-.21,3.77-.21.16-4.94.16-4.86h-7.91V324.9c0-3.59.1-4.06,1-4.06,1.67,0,2.78,2,2.57,4.66l-.16,2.43,5.86-.21,5.92-.21V309.62h-28.2V314Zm28.2,5.07v7.31h-9.76v-2.19c0-2.71-1.07-4.26-3-4.26h-2.45v9h7.91l-.15,4.78-.15,4.26-3.67.21-3.94.21v5c.23,4.8.28,5.07,1.41,5.07,2.09,0,4-4.8,4-4.8v-3.1h9.76v18.06H152.33v-4c0-2.25.25-4.3.51-4.5s.51-6.27.51-15.68-.21-15.42-.51-15.68-.51-2.11-.51-4.16v-3.68h27.12v8.15Z" transform="translate(-17 -195)" fill="#d4effc"/><path d="M181.62,314.26c-.34,3-.09,4.53.42,5.14s.76,3.19.76,14.54-.15,13.86-.76,14.54-.42,5.47-.42,5.47v4.68h11.17l.21-5.47c.1-3.05,0-5.61-.31-5.88s-.31,0-.1.4.16.81-.1.81c-.78,0-1.15-2.57-1.11-7.78l0-4.74,2,9.47c1.11,5.21,2.16,10.35,2.36,11.37.31,1.69.53,1.9,2.25,1.69l2-.21,2.21-10.81,2.25-10.81v5.45s.07,5.75-.49,6.35-.76,2-.66,5.34l.15,4.46,7,.21,7,.21v-5.07c0-2.77-.24-5.28-.55-5.47s-.51-5.88-.51-14.54.21-14.27.51-14.54.51-2.37.55-4.8v-4.66H203.18l-.76,3.86c-.46,2-1.21,5.88-1.74,8.66l-.92,5.07L198,318.54l-1.68-7.64H180.53v3.87h1.08v-.51Zm15.94,4.8c1,4.86,1.89,8.45,2.25,8.45s1-2.3,1.57-5.28,1.21-6.63,1.63-8.45l.72-2.89h12.61v3.36c.56,2,.35,3.92.05,4.13s-.51,6.09-.51,15.21.21,14.94.51,15.21.51,2.37-.05,4.8V358l-5.9-.21-6.52-.21-.15-3.78c-.1-2.77,0-4,.66-4.66s.76-2.23.76-6.83c0-9.2-.92-7.91-3.31,4.66-2,10.21-2.14,10.62-3.42,10.81s-1.42-.14-1.83-2c-.25-1.21-1.21-6.3-2.18-11.23-1.12-5.88-1.93-8.92-2.39-8.92-1,0-.66,12.92.3,13.39.4.14.11,4.59.11,4.59v5H181.63v-4c0-2.73.24-4.3.74-4.84s.74-3.28.74-15.35-.15-14.67-.74-15.35-.74-2.11-.74-4.5v-3.68h14.26Z" transform="translate(-17 -195)" fill="#d4effc"/><path d="M220.92,314.94c.6,11.39.8,33.09.3,33.78-.3.41-.56,3.05-.56,5.84v4.07h27.4l.15-9.34.15-9.26-5.69.21-5.74.21v3.38c0,2.68-.16,3.17-1.42,3.72-2.29,1.1-2.45.89-2.29-3.78l.1-4.48h7.94V329h-7.59V325.1c0-4.12.42-4.63,2.37-3.22.65.52.88,1.35.88,3.22v2.58h10.85V309.62H220.53Zm25.78,4.33v8.39h-9.76v-2.71c0-2.9-.87-4.06-3.08-4.06-1.2,0-1.25.14-1.25,4.74V329h7.6v9H232.6v4.83c0,5.28.29,5.67,3.08,4.19,1.11-.52,1.25-1,1.25-3.54v-2.9h9.76v16.78h-26v-1.91c0-2.46.25-4.75.55-5.16.5-.69.3-25.18-.3-34.7l-.35-4.68H246.7v8.36Z" transform="translate(-17 -195)" fill="#d4effc"/><path d="M274.18,325.2c-.56,2-.36,8.92.36,9.14a66.84,66.84,0,0,0,8.55.06l7.94-.21.36-3.72c.56-6.35.56-6.35-8.81-6.35C275.65,324.13,274.43,324.27,274.18,325.2Zm16.94.21c.51,1.29.15,7.57-.46,7.57-.21,0-.25-.74-.15-1.63.25-1.55.1-1.63-2.34-1.63-2.18-.06-2.59.14-2.59,1.21s.46,1.35,1.68,1.55c.87.14-1.53.34-5.35.34l-7,.14v-3.32c0-5.68-.36-5.47,8.19-5.47C289.76,324.18,290.67,324.32,291.12,325.41Z" transform="translate(-17 -195)" fill="#d4effc"/><path d="M273.82,338.19c-5.14.14-7.64.4-8,1-.25.4-.61,4.53-.72,9.06-.36,11.23-.36,11.15,7.48,12,4.88.54,24.92.61,30.52.06,2.54-.27,6.16-.61,8.09-.81,5.39-.48,5.55-.74,5.14-11.08-.21-4.8-.61-8.79-1-9.26C314.82,338.47,289.38,337.78,273.82,338.19Zm41.05,1.7c.36.48.76,4.32.92,8.66.3,7,.25,7.91-.56,8.86-1.89,2.23-32.2,3.59-43.81,2-5.9-.81-5.95-.88-5.75-10.75,0-4.32.36-8.32.66-8.72.61-1,9.31-1.29,31.69-1C309.43,339.07,314.47,339.34,314.87,339.89Z" transform="translate(-17 -195)" fill="#d4effc"/><path d="M151.93,365.74c-3.25,1-6.26,4.66-7.58,9.26-1,3.45-.81,15,.3,17.72l.61,1.63,7.68-.4c4.18-.27,10.33-.48,13.63-.48h6l.4-3.25c.72-5.75.4-13-.72-16.36a12.3,12.3,0,0,0-7.13-7.57C162.71,365.47,154.06,365.06,151.93,365.74Zm12.56.67,1.78.48-1.12,1.29a4.4,4.4,0,0,0-1.17,2.17c0,.48-.25.88-.56.88-.72,0-2,1.69-2,2.63,0,.4,1,.74,2.34.74,2.08,0,2.34-.14,2.08-1.35-.21-1,0-1.35.72-1.35a1,1,0,0,0,1-.94c0-1.42,1.27-1.75,2.44-.67,2.34,2.17,3.46,10.55,2.44,18.66l-.36,3.25H165.8c-3.46,0-9.36.21-13.12.4-6.87.48-6.92.48-7.53-1.08a37.35,37.35,0,0,1-.92-7.57c-.25-6.7.46-10.35,2.74-13.6l1.32-1.9,1.17,1.69c1.38,2,2.18,2.23,2.59.74.21-.54.61-1,1-1s.72-.48.72-1-.25-1-.56-1a2.22,2.22,0,0,1-1.27-.94c-.61-.88-.46-1,1.17-1.29A39.39,39.39,0,0,1,164.49,366.41Z" transform="translate(-17 -195)" fill="#d4effc"/><path d="M273.21,367a9.21,9.21,0,0,0-4.73,5.28c-.87,2.23-1,20.43-.15,23.33,1.42,5.07,5.2,7.37,11,6.83,4.12-.4,6.41-1.83,7.58-4.8.76-1.83.92-3.92.92-13.32,0-12.64-.46-14.54-3.82-16.63C281.65,366.12,275.71,365.78,273.21,367Zm10.37,1.36c3.31,2,3.76,4.06,3.76,16s-.46,13.94-3.42,16c-2.18,1.5-7.38,2-9.87.94-4.78-2-5.8-5.07-5.8-17.24,0-9.6.36-11.56,2.44-14.06C273.42,366.66,279.78,365.92,283.58,368.35Z" transform="translate(-17 -195)" fill="#d4effc"/><path d="M276.52,384.4l.15,10.36h2.54l.15-10.36.15-10.28h-3.14Z" transform="translate(-17 -195)" fill="#d4effc"/><path d="M305.66,366.4a8.82,8.82,0,0,0-5.33,4.94c-.93,2-1,3.19-.87,13.39.15,11.08.15,11.23,1.59,13.66a7.13,7.13,0,0,0,3.33,3.19c4.1,1.5,11.23.4,13.69-2.17,1.28-1.35,1.33-1.42,1.18-9.54l-.15-8.24-4.71-.21-4.77-.21v4.13c0,2.43.22,4.06.59,4.06s.48.94.38,2.17c-.1,1.69-.42,2.23-1.23,2.23-1,0-1.07-.54-1.23-9.06-.16-9.14.22-11.23,1.83-10.41.42.21.75,1.29.75,2.63v2.3h8.68v-4.4c0-3.78-.15-4.46-1.18-5.34C315.25,366.95,308.84,365.31,305.66,366.4Zm8,2.06c4,1.63,4.59,2.5,4.59,6.76v4.05h-7.6V377c0-1.71-.25-2.36-1-2.7-2.28-.92-2.58.47-2.43,10.8l.15,9.62h1.44c1.42,0,1.53-.21,1.69-2.9.1-1.69,0-2.84-.36-2.84s-.57-1.5-.57-3.38v-3.45l4.23.21,4.19.21.15,7.57c.15,7.37.1,7.51-1.17,8.86-1.48,1.55-5.36,2.84-8.57,2.84-3.57,0-5.82-1.21-7.34-3.86-1.38-2.43-1.42-2.63-1.58-13-.15-9.6,0-10.75.87-12.71C302.83,367.11,307.32,365.82,313.69,368.46Z" transform="translate(-17 -195)" fill="#d4effc"/><path d="M411.38,366.48a8.31,8.31,0,0,0-5.59,4.74c-1.19,3-1.09,22.45.22,25.56,1.52,3.78,3.42,5.07,7.93,5.34,4,.27,9.44-1.08,11.07-2.71.43-.48.65-3.25.65-9.47v-8.72l-5,.21-5,.21-.16,3.52c-.1,2.9,0,3.59.71,3.59s.87.54.71,2.5-.38,2.57-1.25,2.57c-1,0-1.09-.54-1.25-9.06-.1-6.09.05-9.34.49-9.94.93-1.35,2.12.06,2.12,2.5v2h8.74l-.16-4.86-.16-4.94-3-1.42C418.82,366.27,414.21,365.6,411.38,366.48Zm10.22,3.18,2.73,1.38.15,4.15.15,4.08h-6.94l-.15-2c-.2-2.64-1.44-3.88-2.58-2.56-.7.72-.79,2.31-.7,10.47l.15,9.61h1.49c1.44,0,1.49-.14,1.64-3.17.15-2.5,0-3.1-.64-3.1s-.79-.59-.64-2.83l.15-2.76,4.11-.2,4.07-.2v7.83c0,5.53-.2,8.11-.59,8.56-1.38,1.51-6.5,2.89-9.61,2.64-3.61-.33-5.41-1.65-6.74-5.2-1.18-3-1.29-20.67-.2-23.58C409.42,367.68,415.26,366.36,421.6,369.66Z" transform="translate(-17 -195)" fill="#d4effc"/><path d="M178.37,370.37c-.13,2,.12,3.92.38,4.13s.51,4.4.51,10.14-.21,9.87-.51,10.14a21.12,21.12,0,0,0-.38,3.78v2.64h10.84v-3.38c0-1.9-.21-3.38-.52-3.38s-.52-1.55-.52-3.38c0-3.25,0-3.38,1-2.71s1,1.42,1,5.75c0,7.3-.15,7.1,5.27,7.1h4.2l-.3-2.91c-.72-9.39-1.12-12.17-2-13s-.87-.94.15-2.3c1.38-1.83,1.78-4.06,1.48-8.24-.3-4-1.74-6.35-4.43-7.37a83.36,83.36,0,0,0-9.06-1h-8.24l1.11,4ZM193,368.28c2.53,1,3.94,3.23,4.23,7,.2,3.17-.83,7.24-1.84,7.24-.78,0-.54,2.07.34,2.91.54.52,1,2.27,1.21,4.91.24,2.27.54,5.36.68,6.84l.29,2.77h-2.77s-4.67,1.42-4.67-5.82c0-4.26-.15-5.14-1-5.75-1.83-1.21-2.09-.81-2.09,3.38,0,2.23.21,4.06.51,4.06s.51,1.21.22,2.71v2.71h-9.76v-3.79a6.28,6.28,0,0,1,.49-3c.29-.26.49-4.39.49-10.33s-.2-10.08-.49-10.33a7.61,7.61,0,0,1-.49-3.29v-2.84h6.47A39.55,39.55,0,0,1,193,368.28Z" transform="translate(-17 -195)" fill="#d4effc"/><path d="M201.4,370.2c.66,7.56.82,23.16.3,23.84a10.34,10.34,0,0,0-.57,4v3.22h20.61V389.59h-4.13c-4,0-4.13.06-4.13,1.4,0,1.53-.88,2.88-1.92,2.88-.41,0-.67-.85-.67-2.45V388.3h5.42v-7.74h-5.42V378a9.09,9.09,0,0,1,.29-3.11c1,0,2.17,1.66,2.17,3.11,0,1.66.09,1.73,3.94,1.73s3.94,0,3.94,1.73.15,1.73,3,1.73h3v-3.73c0-2.07.24-4,.55-4.22.55-.49.35,15.55-.29,23.3l-.35,4H238v-3.39c0-1.94-.22-3.67-.54-3.86S237,391,237,385c0-5.39.16-8,.27-5.88l.22,4h7V366.38H201Zm43.13,3.91v7.74h-7.59v-3.29c1.32-2.84,1.17-3.72.56-3.72s-.76,1.55-.76,10.08c0,6,.21,10.27.51,10.55a14.2,14.2,0,0,1,.77,3.11v2.62h-9.64l.35-3.32c.2-1.79.45-8,.56-13.83.25-10,.2-10.58-.65-10.37s-1,1-1.06,4.22l-.15,3.94H225c-2.36,0-2.51-.15-2.51-1.73,0-1.73,0-1.73-4-1.73s-4-.07-4-1.73a3,3,0,0,0-2.71-3.11c-.65,0-.8.83-.8,3.8v4.5h4.34v6.45h-4.34V391c0,3.14.09,3.41,1.07,3.41,1.35,0,2.18-1.22,2.18-3.22,0-1.51.19-1.56,3.25-1.56h3.25v11.63H201.13v-2.55a7.59,7.59,0,0,1,.56-3.29c.56-.73.36-18.65-.3-24.55l-.36-3.16h42.4v6.45Z" transform="translate(-17 -195)" fill="#d4effc"/><path d="M245.61,370.31a6.06,6.06,0,0,0-.18,4.32c.56.74.36,15.15-.36,23.33l-.3,3.25h10.6v-3c0-1.68-.21-3.23-.52-3.42a9.36,9.36,0,0,1-.52-3.75c0-3.09,0-3.29,1-2.61.83.6,1,1.54,1.14,6.58l.15,5.84,4.81.2,4.75.2v-3.36c0-1.82-.21-3.56-.52-3.75s-.52-2.07-.52-4.1c0-2.75-.25-4-1-5l-1.09-1.41,1.34-2c1.55-2.41,1.76-7.52.46-10.73-1.44-3.69-4-4.62-12.72-4.62h-7.62l1.1,4ZM261.94,369c3.81,2.28,5.05,8.72,2.47,12.68-1.55,2.41-1.59,3.08-.25,4.83.77,1,1,2.21,1,5,0,2,.25,3.89.52,4.1s.52,1.61.52,3.08v2.68l-4.24-.21-4.28-.21-.15-5.75c-.15-5.82-.67-7.45-2.53-7.45-.83,0-1,7.78-.15,8.45.31.21.52,1.5.52,2.77v2.3h-9.86l.36-3.23c.67-6.25.88-23.06.31-23.82a8.66,8.66,0,0,1-.57-3.62v-2.88h7.11C258.54,367.71,260.14,368,261.94,369Z" transform="translate(-17 -195)" fill="#d4effc"/><path d="M324,368.21c-.1.88-.92,6.7-1.78,13s-1.78,12-2,12.64a32.07,32.07,0,0,0-.8,4.59v2.72h9.77v-2.45c-.32-1.69-.57-3.65-.83-4.4-.51-1.15-.36-1.29,1.27-1.29s2.34.81,1.27,1.69a11,11,0,0,0-.63,3.78v4h10.84v-3.83a6.22,6.22,0,0,0-.25-4.19c-.56-.81-4.38-24.75-4.38-27.32,0-.27-2.74-.48-6.11-.48C324.44,366.72,324.23,366.8,324,368.21Zm12,.94c0,2.57,3.77,26.5,4.33,27.32a7.72,7.72,0,0,1,.71,3.52v1.23H331.3v-2.63a4.17,4.17,0,0,1,.07-3.11,2.57,2.57,0,0,0,.51-1.75c0-1.08-.36-1.29-2.34-1.29-2.25,0-2.34.06-2,1.5a32.14,32.14,0,0,1,.61,4.4l.25,4.18h-8v-2.71a12.72,12.72,0,0,1,.5-3.92c.25-.61,1.16-6.35,2-12.64s1.66-12.17,1.76-13c.25-1.42.45-1.5,5.78-1.5C333.57,368.68,336,368.89,336,369.15Z" transform="translate(-17 -195)" fill="#d4effc"/><path d="M342.14,369.35a7.85,7.85,0,0,0,.5,3.41c.3.27.5,4.55.5,10.71s-.2,10.46-.5,10.71a9.24,9.24,0,0,0-.5,3.75v4.57h8.68v-3.95c.38-1.9.17-3.59-.13-3.78s.13-4.26.13-4.26V386l1,5.07c.53,2.77,1.14,6.22,1.44,7.57.38,2.23.67,2.57,1.81,2.57,1.33,0,1.38-.14,2.82-8s1.44-7.91,1.48-4.06c0,2.09-.14,4.06-.43,4.26a11.84,11.84,0,0,0-.48,4.13v3.65h9.77v-3.68c0-2-.2-3.68-.5-3.68s-.5-3.75-.5-10c0-6,.2-10.18.5-10.46s.5-1.88.5-3.75v-3.29H357.77l-1.15,6.16c-1.15,6.16-1.15,6.24-1.55,3.62-.25-1.41-.75-4.22-1.2-6.16l-.75-3.62h-11v3Zm11.36,1.9c.51,2.17,1,4.94,1.12,6.09.51,4,1.53,2.5,2.7-3.86l1.12-5.82h9.75v2.61c0,1.49-.2,2.88-.51,3.09s-.51,4.7-.51,11.14c0,6.65.2,10.67.51,10.67s.51,1.34.51,3v3H359.5v-3c0-1.69.27-3.25.54-3.45s.54-2.37.54-4.8c0-7-1.15-5.61-2.93,3.45-1.25,6.43-1.68,7.78-2.55,7.78-1,0-1.15-.34-3-9.6-1.3-6.63-2.39-7-2.39-.94,0,2.43.27,4.59.54,4.8s.54,1.63.54,3.11v2.62h-8.68v-2.63a18.66,18.66,0,0,1,.94-3.11c.3-.27.51-4.86.51-11.5s-.21-11.23-.51-11.5a15.55,15.55,0,0,1-.94-2.77v-3.33h10.55Z" transform="translate(-17 -195)" fill="#d4effc"/><path d="M370.35,370c-.32,1.9-.07,3.59.19,3.78s.51,4.53.51,10.48-.21,10.21-.51,10.48-.19,3.78-.19,3.78v2.66h10.94l-.35-3.55c-.64-6.64-.84-24.05-.29-24.79a9.11,9.11,0,0,0,.55-3.62v-2.88H369.27l1.08,3.66Zm10.84-.4c-.48,1.21-.73,2.57-1,2.9-.61.81-.4,20.68.25,25.77l.36,2.9H370.34V398.6a6.53,6.53,0,0,1,.51-3.09c.3-.27.51-4.7.51-11.07s-.2-10.82-.51-11.07a6.7,6.7,0,0,1-.51-3.09v-2.61h9.76l1.09,2Z" transform="translate(-17 -195)" fill="#d4effc"/><path d="M382.28,369a8.31,8.31,0,0,0,.48,3.45c.29.27.48,4.6.48,10.83s-.2,10.58-.48,10.83a9.82,9.82,0,0,0-.48,3.79v3.32H391v-3.26a13,13,0,0,0-.43-3.93,10.9,10.9,0,0,1-.63-3.45c-.24-3.72,0-3.19,2.31,4.33L394,401.2h8.85V387.53c0-8.44.22-13.87.54-14.14s.54-1.88.54-3.75v-3.29h-8.68v3.59a7.07,7.07,0,0,0,.22,4,9,9,0,0,1,.36,3.65l-.15,3-2-7-1.93-7.23h-9.53v2.58h0V369ZM393,374.37c2.3,7.72,3.39,8.72,3.39,3.09,0-2-.21-3.89-.52-4.1a6.49,6.49,0,0,1-.52-3.09v-2.61H404v2.63c0,1.5-.22,2.9-.54,3.11s-.54,5.75-.54,14.27v13.54h-7.6l-2.12-6.63c-2.49-7.7-3.94-9.14-3.42-3.38a14.77,14.77,0,0,0,.73,4.19,8.77,8.77,0,0,1,.47,3.25v2.57h-8.68V398.6a6.49,6.49,0,0,1,.52-3.09c.31-.27.52-4.83.52-11.41s-.21-11.14-.52-11.41a5.46,5.46,0,0,1-.52-2.75v-2.28H391Z" transform="translate(-17 -195)" fill="#d4effc"/><path d="M166.27,399a28.68,28.68,0,0,0-2.74,2.3c-.66.67-1.38,1.08-1.57.94-.92-.74-2,2.77-2,6.3,0,7.37,2.59,16.76,3.16,11.43.15-1.42.4-1.5,5.35-1.69l5.2-.21.36,1.69c.15.94.51,1.75.72,1.75,1.38,0,3.06-13.66,2.09-17a3.92,3.92,0,0,0-2.09-2.43,14.53,14.53,0,0,1-3-2.09C169.63,398,168,397.7,166.27,399Zm4.93,1.69a15.06,15.06,0,0,0,2.95,2c1.57.67,2.54,2.71,2.54,5.34,0,1.21-.1,1.29-.76.34a3.73,3.73,0,0,1-.76-1.69.77.77,0,0,0-.76-.74c-.4,0-.76.48-.76,1s-.36,1-.76,1-.76.48-.76,1,.36,1,.76,1a.71.71,0,0,1,.76.67.75.75,0,0,0,.76.67.76.76,0,0,0,.76-.67.6.6,0,0,1,.51-.67c.72,0,.66,4.66-.1,7.45-.51,2-.61,2.09-1.17,1.08s-1.48-1.08-6.16-.94c-5.39.21-5.5.27-5.8,1.9-.21,1.29-.51.54-1.17-3.19-.87-4.94-1.12-9.39-.56-11.37a6.07,6.07,0,0,1,1.93-2.09,40.38,40.38,0,0,0,3.56-2.57C168.31,398.58,169,398.58,171.2,400.67Z" transform="translate(-17 -195)" fill="#d4effc"/><path d="M239,403.37c-.15.27-1.74.54-3.5.54-3.1,0-3.31.06-4.07,2-1.27,3.25-1,10.89.51,14.88A22.89,22.89,0,0,0,241.06,432c4.73,3,8,3.86,9.41,2.57a3.12,3.12,0,0,0,1-1.75c0-.4-1.83-3.11-4-5.88-3.21-4.06-4.18-5.82-4.63-8.12-.72-3.45-.36-11.77.51-13.19a2.69,2.69,0,0,0,.4-1.83C243.51,402.9,239.37,402.49,239,403.37Zm3.86,1.64c-1,1.42-1.27,10.81-.51,14.48.51,2.43,1.38,4,4.48,7.84,2.9,3.65,3.76,5.07,3.46,6s-.72,1.15-2.59.81c-2.59-.48-8-3.65-9.91-5.75L236.49,427l1.38-.06c1.78,0,2.95-1.63,2.95-4.06,0-2.84-1.27-4.19-3.76-3.92-1.89.21-2.14.4-2.65,2.57l-.56,2.3-1.38-3.45c-2.34-6.3-1.53-15.75,1.42-15.75a1.47,1.47,0,0,1,1.48,1.35,1.49,1.49,0,0,0,1.32,1.35c.72,0,1.07-.4,1.07-1.35,0-.74.25-1.35.51-1.35s.51.27.51.67.46.67,1,.67a1,1,0,0,0,1-1c0-.67.51-1,1.32-1C243.3,403.92,243.4,404,242.83,405Z" transform="translate(-17 -195)" fill="#d4effc"/><path d="M180.62,402.93c-.72.95-.87,2.7-.92,11.12,0,10.79.15,12.61,1.48,13.48,3.16,2.26,37.5,2.26,44.32,0,2.54-.86,2.74-1.74,2.49-12.79-.15-6.17-.51-10.7-.87-11.48-.56-1.14-4-1.3-23.15-1.39C186.52,401.9,181.33,402.06,180.62,402.93Zm46,1.22c.36.7.66,5.21.72,11,.1,5.39,0,8.79,0,7.39-.21-1.91-.56-2.35-1.78-2.35s-1.48.26-1.48,2.61.21,2.61,1.38,2.61c.72,0,1.21.26,1,.53-.87,1.48-14.86,2.79-27.32,2.43-13.73-.35-17.6-.95-18.36-3.05-.25-.7-.46-5.57-.46-11,0-8.35.1-9.83.92-10.61.56-.61,8.39-.95,22.84-.86C222.24,402.93,226.1,403.11,226.61,404.15Z" transform="translate(-17 -195)" fill="#d4effc"/><path d="M254.58,411.34c-.83.38-.83,7.42,0,8.45.38.52,2.81.78,7.76.78h7.18v-9l-5.19-.06c-2.92-.06-6.11-.14-7.18-.2A7,7,0,0,0,254.58,411.34Zm14.71,2.77c0,1.56-.1,1.64-2.39,1.64s-2.44.21-2.59,1.55,0,1.55,1.27,1.42c2.34-.21,3.71,0,3.71.74,0,1-13.89.88-14.65-.14a7.3,7.3,0,0,1-.34-4.06v-2.43h15.18v1.29h-.19Z" transform="translate(-17 -195)" fill="#d4effc"/><path d="M213.94,432.72c-1,.94-1.12,1.5-.87,3.72a27.57,27.57,0,0,1-.51,7.24c-1,5.28-.92,6.76.4,7.84.76.61,1,.48,1.48-.61a12.21,12.21,0,0,0,.76-3.38c.1-1.15.25-2.77.36-3.72s.21-2.09.25-2.5.56-.74,1.17-.61c.87.14,1.17.67,1.27,2.09.15,2.5.76,2.9,3.61,2.57,3.42-.48,3.67-.61,3.67-2.77,0-1.69.21-2,1.27-2s1.27.34,1.32,2.5c0,1.35.15,2.9.21,3.45s.15,1.69.21,2.5a5.06,5.06,0,0,0,.92,2.57c.81,1.08.87,1.08,1.53-.06.92-1.63.81-5.61-.15-9.47-.61-2.5-.66-3.52-.21-5,1.21-4-1.21-6.3-4.43-4.19a8.62,8.62,0,0,1-8.66-.06C215.58,431.37,215.37,431.37,213.94,432.72Zm7.79,2.19a8.84,8.84,0,0,0,4.43-.81c1.21-.81,1.38-.81,1.12,0a2.79,2.79,0,0,1-2,1.35c-1.07.27-1.74.88-1.74,1.5,0,.81.36.94,1.68.61.87-.27,1.68-.74,1.78-1.08s.46-.4.87-.21a1.83,1.83,0,0,0,1.68-.34c1-.67,1-.61.46,1.21-.4,1.55-.36,2.71.3,5.47,1,4,1.07,6.63.36,8.12s-1.38-.21-1.78-5.82l-.36-5H226.8c-1.57,0-1.74.21-1.89,2.17-.15,2.23-.21,2.23-3.06,2.43l-2.9.21-.15-2.23c-.15-2-.36-2.23-1.74-2.43-1.68-.21-2.18.81-2.25,4.59a26.36,26.36,0,0,1-.56,4.32c-.51,2.37-.61,2.5-1.32,1.55s-.72-1.55.1-6.15a35.3,35.3,0,0,0,.61-7.64c-.15-1.42-.15-2.17,0-1.75.3,1.15,2.7,1.15,2.7,0a3.88,3.88,0,0,0-.61-1.75c-.36-.48.15-.34,1.12.34A10.16,10.16,0,0,0,221.73,434.91Z" transform="translate(-17 -195)" fill="#d4effc"/><path d="M183,434.13a35.75,35.75,0,0,0-.24,5.68v5.28h10.85l0-5.21c0-4.13-.2-5.28-.8-5.42C190.73,434.13,183.14,433.85,183,434.13Zm10.6,5.08v4.58H182.71V439.2a35.6,35.6,0,0,1,.2-4.94,22,22,0,0,1,4.88.06l4.68.34Z" transform="translate(-17 -195)" fill="#d4effc"/><path d="M201.12,439.55c-.4.14-1.12.48-1.53.67a2.31,2.31,0,0,1-1.48.27c-.46-.14-.61.21-.4.88s0,1-.3.88-.51.34-.4.88c.56,2.77.61,5.42,0,6.7-.92,2.3-.21,3.86,2.18,4.8,6.16,2.5,7.43,2.09,5.29-1.63-2-3.45-1.93-8.18.15-10.89.81-1,1.38-2.17,1.21-2.5C205.6,439,202.4,438.95,201.12,439.55Z" transform="translate(-17 -195)" fill="#d4effc"/><path d="M238.67,439.48c-.76.94-.4,2.09.92,2.9,1.07.61,1.21.94.72,1.69a2.25,2.25,0,0,0,0,2.3,2.09,2.09,0,0,1,0,2.37,2.85,2.85,0,0,0-.36,2,2.24,2.24,0,0,1-.81,2.09c-1.12,1-1.12,1.08-.21,2.37.51.81,1.12,1.21,1.42.94a3.29,3.29,0,0,1,1.83-.34,5,5,0,0,0,2.85-1.63c1.38-1.55,1.48-1.75.66-2.57-1.12-1.08-1.17-7.57-.1-8.12,1.93-1-.61-3.52-4.18-4.13C240.14,439.15,238.87,439.21,238.67,439.48Z" transform="translate(-17 -195)" fill="#d4effc"/><path d="M218.83,453.88a7,7,0,0,0-2.59,1.29,7,7,0,0,1-3.16,1.29c-4.67.81-6.81,5.61-6.67,14.74.1,5.75,1.07,8.79,2.8,8.79,1.07,0,1.38-.61,2.29-4.32s1.27-4.4,2.34-4.46c3-.27,3.86,1.29,4.88,8.79.92,7,2.9,9.94,4.84,7.3.56-.67,1.53-4.19,2.25-8a49.11,49.11,0,0,1,1.74-7.3,4.09,4.09,0,0,1,2.39-.74l1.93-.06,1.07,4.32c1.38,5.42,2.39,6.35,3.76,3.38s1.78-6.63,1.32-11.29c-.66-7.3-2.49-10.27-6.77-11.23a14.2,14.2,0,0,1-3.92-1.75C225.28,453.21,222.39,453,218.83,453.88Zm8,1.43a13.63,13.63,0,0,0,3.92,1.75c4.67,1,6.61,4.8,6.71,13.12,0,5.21-1.12,9.87-2.34,9.34-.3-.14-1.07-2.23-1.68-4.66l-1.07-4.32-2.39.06a5.06,5.06,0,0,0-2.9.67,49.74,49.74,0,0,0-1.78,7.3c-1.27,6.76-2.34,9.39-3.56,8.79-.81-.48-2-4.26-2.49-8-.81-6.15-1.27-7.57-2.8-8.45a5.75,5.75,0,0,0-2.9-.54c-1.32.21-1.57.67-2.54,4.59-.61,2.63-1.38,4.4-1.78,4.4-1.27,0-2.25-3.78-2.18-8.79.1-8.72,2-12.58,6.56-13.46a6.42,6.42,0,0,0,3.16-1.21C218.57,453.82,224.17,453.55,226.81,455.31Z" transform="translate(-17 -195)" fill="#d4effc"/><path d="M131.73,327.43c0,7.16,0,7.51,1.07,7.51,2.59,0,3-1,3-7.45,0-3.32-.15-6.15-.36-6.3a8.93,8.93,0,0,0-2-.81l-1.68-.48v7.53Z" transform="translate(-17 -195)" fill="#d4effc"/><path d="M189.21,377.43c0,5,0,5.29.36,5.29.88,0,1-.72,1-5.24a43.12,43.12,0,0,0-.12-4.43,2.55,2.55,0,0,0-.69-.57l-.57-.34v5.29Z" transform="translate(-17 -195)" fill="#d4effc"/><path d="M254.29,377.43c0,5,0,5.29.36,5.29.88,0,1-.72,1-5.24a43.12,43.12,0,0,0-.12-4.43,2.55,2.55,0,0,0-.69-.57l-.57-.34v5.29Z" transform="translate(-17 -195)" fill="#d4effc"/><path d="M330.21,377.43c0,5,0,5.29.36,5.29.88,0,1-.72,1-5.24a43.12,43.12,0,0,0-.12-4.43,2.55,2.55,0,0,0-.69-.57l-.57-.34v5.29Z" transform="translate(-17 -195)" fill="#d4effc"/></g></svg>
