<svg id="Layer_1" data-name="Layer 1" xmlns="http://www.w3.org/2000/svg" viewBox="0 0 1246.97 331.42"><title>splash</title><path d="M111,296c.91-3.52,3.25-6.11,5.72-8.58q12-12,24-24a28.2,28.2,0,0,1,20.62-8.49q174.14,0,348.28,0c9,0,12.74,4.19,12.75,14q0,76.7,0,153.4c0,22.15-.08,44.31.06,66.46a31.69,31.69,0,0,1-10.19,24.34c-7.56,7.25-14.65,15-22,22.46-2.93,3-6.13,5.63-10.31,6.75-.1-2.15-1.67-3-3.26-4-13.06-8.44-26-17-39.07-25.46-3.14-2-3.6-4-.67-6.63,1.7-1.51,3.61-3,3.32-5.77l.22.23,1.36-.71c7-5.47,12.85-12.05,19.18-18.2,20.56-20,20-20,19.82-48a30.75,30.75,0,0,0-9.22-22.43c-7.53-7.55-15.12-15-22.6-22.63a31.41,31.41,0,0,0-23.29-9.65c-9,0-18-.14-27-.21q19.42-19.66,38.82-39.33c1.34-1.36,3.32-2.42,3.06-4.83l-.07.12a1.81,1.81,0,0,0,2.12-1.33c10.51-8.5,19.28-18.8,29-28.11,1.88-1.8,4.48-3.7,3.27-6.69s-4.41-2.5-7-2.51q-49.45,0-98.91,0c-7.07,0-13.68,2-18.87,6.74A346.64,346.64,0,0,0,319,335c-1,.38-1,1.24-1.1,2.09l0-.05c-3-.52-4.58,1.75-6.09,3.62-7.54,9.35-16.65,17.16-25,25.69-5.32,5.42-10.82,10.67-16.23,16-3.32-2.53-7.05-3.35-11.21-3.29-8.81.12-17.62-.06-26.43-.12,1.21-1.36,2.36-2.77,3.64-4.05,12-12,24-24,35.85-36,1-1.05,3.54-1.64,2.25-4.1a34,34,0,0,0,4.88-3.36q14.28-14,28.38-28.09c1.16-1.16,2.28-2.71,1.52-4.46-1-2.36-3.43-2.52-5.56-2.52q-47.42.08-94.84.27c-10.07-1.36-19.6.34-26.75,7.77-7.69,8-15.34,16-23.45,23.54,0-2.34-2-2.89-3.46-3.84q-14.08-9.29-28.25-18.45C121.86,302.19,116.92,298.25,111,296Z" transform="translate(-107.89 -214.84)" fill="#008ca0"/><path d="M440.33,500.52c.3,2.72-1.62,4.26-3.31,5.77-2.94,2.62-2.47,4.59.67,6.63,13,8.46,26,17,39.07,25.46,1.59,1,3.16,1.84,3.26,4a23.62,23.62,0,0,1-11,2.58l-200.61,0a13.36,13.36,0,0,1-1.48-.16q18.22-18.41,36.43-36.83c1.36-1.38,3.23-2.46,3.44-4.71,5-2.4,2.74-5.22.27-7.73-8-8.19-16.21-16.26-24.31-24.39A30.46,30.46,0,0,0,260.28,462c-11.14,0-22.28-.11-33.42-.18q17.81-18.5,35.61-37c1.22-1.27,3.06-2.16,3.11-4.3l0,.23,1.23-.6c5.35-3.26,7.34-8.11,7-14.24-.22-4.13-.17-8.28,0-12.41a16.37,16.37,0,0,0-3.24-11.17c5.42-5.33,10.92-10.57,16.23-16,8.37-8.53,17.47-16.34,25-25.69,1.51-1.87,3-4.14,6.09-3.62-4.08,9.37-2.71,19.29-2.78,29a30,30,0,0,0,9.34,22.36C331.7,395.52,339,402.58,346,410s15.61,10.81,25.83,10.75c21-.12,41.93.11,62.9-.07,4,0,5,1.23,4.88,5-.27,7.64,0,15.31-.07,23-.07,9.21-4.25,13.35-13.39,13.39l-43.92.15q-28.47-.06-56.94-.11c-2,0-4.16.32-5.17,2.38-1.09,2.22,1.05,3.38,2.19,4.54,9,9.16,17.92,18.37,27.21,27.2,5.51,5.24,12.54,7.38,20.15,7.42,8.83,0,17.66.15,26.49,0,7.64-.13,15.29.69,22.91-.45C426.34,504,433.49,503.46,440.33,500.52Z" transform="translate(-107.89 -214.84)" fill="#005e73"/><path d="M306.75,503.28c-.21,2.25-2.07,3.33-3.44,4.71q-18.18,18.45-36.43,36.83L155,545c-11.82,0-23.65.07-35.47,0-7.07-.06-11.62-4.49-11.62-11.56q0-64.19.12-128.38c8.95,3.43,15.84,10.25,24.14,14.71,5.63,3,10,8.36,16.79,9.25.07,6.65.12,13.31.22,20a30.78,30.78,0,0,0,9.34,22.39c7.36,7.23,14.76,14.44,21.89,21.89,6.87,7.18,15.11,10.43,25,10.4,31-.09,61.93,0,92.9,0C301.1,503.59,303.93,503.38,306.75,503.28Z" transform="translate(-107.89 -214.84)" fill="#00394f"/><path d="M742.41,269.74c10.72-16.32,32.88-19.35,47.47-8.77a30,30,0,0,1,12.85,24.73c.36,24.82.06,49.64.19,74.46,0,3.09-.81,3.89-3.89,3.89-10.18,0-10.18.14-10.18-10q0-33.48,0-67c0-11.47-7.61-18.82-19-19.19-8.59-.28-15.93,1.27-20.75,9.25a15.42,15.42,0,0,0-2.24,8.33c0,24.65-.07,49.31.11,74,0,3.77-1,4.73-4.68,4.64-9.41-.23-9.42,0-9.42-9.29q0-34,0-68c0-11.16-7.66-18.52-18.78-18.93-8.79-.32-16.24,1.29-21.17,9.45a15.33,15.33,0,0,0-2.05,8.4c0,24.49-.09,49,.11,73.46,0,4-1.08,5-4.95,4.88-9.15-.26-9.15-.06-9.15-9.05q0-46.72.07-93.45c0-1.51-1.36-3.95,1.44-4.51,2.31-.46,4.33-.19,5.51,2.6,1.07,2.5,2.9,4.68,4.39,7A34.17,34.17,0,0,1,742.41,269.74Z" transform="translate(-107.89 -214.84)" fill="#8b2e63"/><path d="M148.94,429c-6.79-.89-11.16-6.22-16.79-9.25C123.86,415.25,117,408.44,108,405q-.05-49.31,0-98.62A20.07,20.07,0,0,1,111,296c5.94,2.25,10.87,6.19,16.13,9.58q14.18,9.14,28.25,18.45c1.44,1,3.49,1.5,3.46,3.84-7.09,7.35-10,16.13-9.68,26.3.3,8.64.1,17.29.06,25.94Q149.11,404.53,148.94,429Z" transform="translate(-107.89 -214.84)" fill="#005e73"/><path d="M823.85,504.24c0,12,0,24-.05,36,0,1.26,1,3.42-1.27,3.61-1.68.14-3.71,1.17-5.08-1.54s-3.34-6.63-5.87-7.47-4.43,3.53-6.91,5.33c-12.57,9.12-35.05,8.12-46.16-6-7.59-9.68-8.91-20.89-5-32s12.28-18.34,24.79-20.21c9.28-1.39,18.52-.62,27.77-.77,3.16-.05,4.07-1,3.8-4-.58-6.33,1.2-12.85-2-19-3.37-6.54-8.4-10.35-15.92-10.14-5.84.17-11.75-1-17.33,2.44-4.64,2.86-6.45,7.08-7.81,11.85a4.85,4.85,0,0,0,0,1c-.22,4-.75,6.89-6.43,5.86-7.74-1.41-8.77-2.84-6.77-10.69,3-11.91,10.44-19.16,21.92-22.75,16.68-5.21,34.41.38,43.36,13.91,3.92,5.93,4.59,12.88,4.81,19.66C824.12,480.92,823.85,492.58,823.85,504.24ZM796,492c-3.95,0-7.11,0-10.27,0-17.88-.31-23.86,16.59-19,29.82,5.05,13.65,28.61,13.9,36.56,6.36,6.36-6,6.84-13.41,6.54-21.27-.19-4.78,1.53-11-.87-13.95C806.45,489.86,799.95,492.39,796,492Z" transform="translate(-107.89 -214.84)" fill="#8b2e63"/><path d="M623.33,312c-8.5,0-17,.17-25.49-.08-3.4-.1-4.26,1.06-4,4.22.54,7.73-.9,15.56,1.05,23.24,1.55,6.1,9,14.24,17.23,13.65,4.14-.29,8.46.47,12.43-.43,9.48-2.16,14.52-9.27,14.21-20-.14-4.81,2-5.32,5.56-4.32a17.52,17.52,0,0,0,3.33.75c5.53.44,5.2.85,4.69,6.36-.63,6.71-2.31,12.68-6.3,18.19-5.68,7.84-13.45,11.6-22.78,12.36a99.09,99.09,0,0,1-14,0C594.16,365,581.06,352,580.89,337c-.19-16.66.62-33.36-.23-50-.85-16.87,14.76-33.5,32.5-32.08,5.24.42,10.49-.25,15.77.94,12,2.71,22.12,14.79,23.15,27.18.7,8.46.35,16.88.82,25.3.16,2.79-.65,3.74-3.56,3.68C640.66,311.85,632,312,623.33,312Zm-6.91-11c6.33,0,12.67-.09,19,0,2.46.05,3.65-.44,3.49-3.24-.23-4,.27-8-.13-12-.6-6-2.67-11.08-8.15-14.74-5.78-3.86-12-3-18.13-3-8.51-.09-15.55,5.9-17.73,14.16-1.43,5.43-.53,10.85-.93,16.26-.19,2.49,1.25,2.58,3.1,2.57C603.42,300.94,609.92,301,616.42,301Z" transform="translate(-107.89 -214.84)" fill="#8b2e63"/><path d="M1030.2,353.88c-8.62,10.75-20.08,13.62-32.54,11.95-14-1.88-23.33-10.16-26.71-24.24-3-12.63.32-23.65,10.17-32.33A27.33,27.33,0,0,1,998.83,302c8.49-.19,17-.16,25.47,0,2.87.06,3.77-.82,3.6-3.64-.23-3.82-.05-7.66-.05-11.49,0-11.67-7.26-19-18.92-18.92-4.1,0-8.23-.45-12.23,1.05a18.11,18.11,0,0,0-11.76,17c.06,3.87-1.38,4.66-4.67,3.67-.47-.14-.87-.54-1.34-.64-9.32-1.94-9.51-2-6.65-11,4.37-13.65,14.15-23,31.3-23.14,7.92,0,15.81-.29,22.83,4.26,9.2,6,15.21,14.14,15.34,25.32.29,25,.12,49.95,0,74.92,0,1.5,1.35,3.84-1.44,4.49-2.41.56-4.15-.57-5.41-2.56Zm-2.36-27.12c0-3.5-.16-7,.05-10.48.16-2.65-.76-3.41-3.37-3.36-7.65.16-15.31,0-23,.06-8.44,0-15.44,5.31-17.31,14.34-1.75,8.39,0,18.17,8.22,23,5.72,3.33,11.73,2.65,17.76,2.68a17.48,17.48,0,0,0,17.63-17.7C1027.85,332.42,1027.85,329.59,1027.84,326.76Z" transform="translate(-107.89 -214.84)" fill="#8b2e63"/><path d="M1186.85,310.66c0-7.83.15-15.66,0-23.49-.4-18,14.65-32.91,32.19-32.3,9.22.32,18.2-.07,26.34,5.8,8.68,6.27,13.1,14.62,13.38,24.87q.66,25,0,50A31.08,31.08,0,0,1,1227.38,366c-8.34-.09-16.68.76-24.45-3.89-10-6-15.34-14.59-16-25.93C1186.45,327.67,1186.85,319.16,1186.85,310.66Zm58,0c0-8.49.16-17-.05-25.48-.16-6.52-3.34-11.41-9-14.76-5.47-3.24-11.49-2.08-17.35-2.48-8.06-.55-18,8.72-17.74,17.42.45,16.81.11,33.64.14,50.45,0,6.69,3.55,11.16,8.93,14.73,5,3.31,10.47,2.12,15.83,2.48,9.92.68,20.08-7.89,19.32-19.39C1244.44,326,1244.85,318.29,1244.85,310.63Z" transform="translate(-107.89 -214.84)" fill="#8b2e63"/><path d="M1039.85,489.82c0,8.82,0,17.65,0,26.48,0,13.43-11.6,26.54-24.91,28.73-10.4,1.71-20.7,2-30.14-3.17-9.1-5-14.84-12.58-16-23.49-1.88-17.08-1-34.18-.7-51.24.24-14.52,7-28,23.69-31.19,14-2.63,28.8-3.75,40,8.53,5.08,5.55,8.19,12.08,8.1,19.88C1039.77,472.83,1039.85,481.33,1039.85,489.82Zm-58,.08c0,7.83,0,15.65,0,23.48a14.9,14.9,0,0,0,.57,4.84c3.5,10.5,9.67,14.69,22,14.77,14.69.1,22-7.27,22.31-21.37.35-14.48.39-29,0-43.46-.26-8.67-3-16.35-12.58-19.45-4.42-1.44-8.87-.2-13.26-.76-10.64-1.33-19.47,8.93-19.1,19C982.07,474.57,981.85,482.24,981.85,489.9Z" transform="translate(-107.89 -214.84)" fill="#8b2e63"/><path d="M593.43,506.86c1,3.65.32,7.1,1.25,10.53,1.8,6.66,5.35,11.41,11.82,13.72a32.25,32.25,0,0,0,24.34-.61c6.11-2.62,9.85-7,10-13.8.12-7.21-4.12-12-10-15.19-8.59-4.73-18.3-6.48-27.53-9.5-25.22-8.24-25.48-36.88-11.65-49.24,5.6-5,12.2-8.21,20-7.78,7.51.41,15.17-1.35,22.49,1.92,10.31,4.6,16.78,12.27,18.55,23.39.32,2,2.76,5.23.43,6.26-3.6,1.59-7.87,1.8-11.9,2.28-1.77.21-1.31-1.58-1.32-2.62-.08-10.34-8.69-19.56-19.75-18.32-5.32.6-10.6-.34-15.95,2.13-9.69,4.47-9.55,21.3-1.29,26.1A86,86,0,0,0,621.67,484c8.27,2.48,16.39,5.12,23.38,10.55a22.56,22.56,0,0,1,8.35,12.67c1.76,7.2,1.57,14.41-1.74,21.39-4.11,8.68-11.34,13.72-20.08,15.89-9.4,2.33-19.12,2.62-28.68-.4-13.58-4.3-23.44-17.21-22.13-32,.2-2.32.83-2.71,3.06-3.23C587,508,590.37,508.57,593.43,506.86Z" transform="translate(-107.89 -214.84)" fill="#8b2e63"/><path d="M1295.09,266.8a30.3,30.3,0,0,1,20.45-11.65c14.61-1.79,27,2.37,35.28,15.41a24.78,24.78,0,0,1,3.92,13.35c.1,25.33,0,50.66.12,76,0,3.32-.94,4.12-4.16,4.09-9.81-.09-9.81.05-9.81-9.85q0-34.5,0-69c0-7.9-5.63-15.9-13.63-16.82-7.46-.86-15.37-2.15-22.44,2.92-5.38,3.86-8,8.85-8,15.24-.07,24-.12,48,.06,72,0,4.08-.51,5.82-5.25,5.57-8.71-.46-8.73-.12-8.73-9q0-46.75.07-93.49c0-1.5-1.36-4,1.43-4.47,2.48-.45,4.76-.29,6,2.85A18.33,18.33,0,0,0,1295.09,266.8Z" transform="translate(-107.89 -214.84)" fill="#005e73"/><path d="M1076.39,446.69c6.28-7,13.4-11.87,23.18-11.77,7.88.09,15.55-.2,22.65,4.65,9.65,6.6,14.26,15.88,14.48,26.92.47,24.48.08,49,.23,73.45,0,3.35-1,4.11-4.19,4.09-9.89-.07-9.89.07-9.89-9.8q0-33.73,0-67.46c0-11.31-7.48-18.94-18.68-18.76-5.68.09-11.49-1.15-16.92,2.11s-8.32,7.89-8.35,14c-.13,24.82-.16,49.64,0,74.46,0,4.24-.76,5.73-5.35,5.51-8.74-.42-8.75-.11-8.75-9q0-46.72.06-93.45c0-1.54-1.29-3.94,1.33-4.6s4.57-.08,5.73,2.95C1072.87,442.38,1074.79,444.36,1076.39,446.69Z" transform="translate(-107.89 -214.84)" fill="#8b2e63"/><path d="M887.21,354c-8.16,10-19,12.87-31.32,12-13.57-1-25.77-11.61-28.14-24.57a76.18,76.18,0,0,1-.9-13.78c0-22,.07-44-.09-66,0-3.53.55-4.9,4.53-4.79,9.55.27,9.55,0,9.55,9.67q0,33.73,0,67.46c0,11.41,7.64,18.92,19.15,19,7.06,0,14.1.66,19.73-5.26a16.93,16.93,0,0,0,5.14-12.27c0-24.49.1-49-.12-73.46,0-4.23,1.1-5.27,5.21-5.12,8.89.32,8.89.08,8.89,8.82q0,46.72-.06,93.45c0,1.57,1.26,3.93-1.18,4.7s-4.41-.36-5.75-2.68S888.88,356.56,887.21,354Z" transform="translate(-107.89 -214.84)" fill="#8b2e63"/><path d="M1090.85,229.41c0,8.06.14,15.88-.07,23.69-.08,3,.64,4.07,3.83,3.94,6.48-.26,13,0,19.48-.12,2.57-.06,3.81.3,3.85,3.4.14,9.64.29,9.64-9.55,9.64-4.83,0-9.66.11-14.48,0-2.41-.08-3.1.75-3.09,3.12.08,21.31-.06,42.63.1,63.94.05,6.85,7.06,13.57,13.91,14,2.16.13,4.33,0,6.49,0,6.53,0,6.53,0,6.53,6.58,0,6.42,0,6.23-6.69,6.47-7.34.27-14.42-.28-20.83-4.26-9-5.55-13.19-14-13.37-24.17q-.53-29.71,0-59.44c.1-5.44-1.62-7-6.58-6.23a38,38,0,0,1-5.49,0c-7.08,0-7.08,0-7.08-7,0-6,0-6,7.65-6,11.35,0,11.35,0,11.35-11.25v-4c0-11,0-11,11.1-11.77A27.71,27.71,0,0,0,1090.85,229.41Z" transform="translate(-107.89 -214.84)" fill="#8b2e63"/><path d="M858.85,486c0-10.67-.14-21.33.08-32,.07-3.38-1-4.27-4.21-4.07-4,.26-8,0-12,.09-2.09.06-2.8-.54-3-2.77C839.1,437,839,437,849.21,437c9.64,0,9.64,0,9.64-9.48,0-3.67.44-7.4-.11-11-.72-4.65,1.77-5.88,5.44-6.5,7.67-1.3,7.67-1.3,7.67,6.62,0,5.66.12,11.33-.05,17-.08,2.57.63,3.49,3.33,3.41,6.49-.19,13,.07,19.49-.11,3-.08,4.39.38,4.34,3.95-.12,9.11.08,9.11-9.11,9.11-4.83,0-9.67.1-14.49,0-2.37-.07-3.57.31-3.55,3.17.12,20.66-.07,41.32.12,62,.08,9,7,15.31,16.62,15.87a17.87,17.87,0,0,0,4,0c5.17-.88,6.83,1.1,6.45,6.34-.49,6.66-.12,6.64-7,6.7-11.92.1-22.37-2.8-29.21-13.62a23.73,23.73,0,0,1-3.86-12.9Q858.83,501.71,858.85,486Z" transform="translate(-107.89 -214.84)" fill="#8b2e63"/><path d="M688.85,486c0-10.67-.14-21.33.08-32,.07-3.36-1-4.29-4.2-4.08-4,.26-8,0-12,.1-2.07.06-2.81-.52-3-2.76C669.09,437,669,437,679.2,437c9.65,0,9.65,0,9.65-9.48,0-3.67.44-7.4-.11-11-.71-4.64,1.75-5.89,5.43-6.51,7.69-1.3,7.68-1.31,7.68,6.61,0,5.5.17,11-.07,16.49-.13,3,.64,4.07,3.83,3.94,6.49-.26,13,.11,19.49-.16,3.22-.14,3.83,1,3.82,4,0,9.12.11,9.12-9.08,9.12-4.83,0-9.67.09-14.5,0-2.36-.06-3.58.28-3.56,3.16.12,20.66-.07,41.32.12,62,.08,9,7,15.32,16.61,15.88a17.89,17.89,0,0,0,4,0c5.15-.87,6.85,1.07,6.45,6.33-.5,6.67-.12,6.65-7,6.71-11.91.1-22.37-2.79-29.21-13.62a23.73,23.73,0,0,1-3.87-12.9Q688.82,501.72,688.85,486Z" transform="translate(-107.89 -214.84)" fill="#8b2e63"/><path d="M927.85,289.2c0-23.17.06-46.33-.07-69.5,0-3.43.39-5,4.47-4.85,9.6.28,9.61,0,9.61,9.64,0,44.83-.07,89.67.11,134.5,0,4.3-1.21,5.22-5.26,5.08-8.85-.3-8.85-.08-8.85-8.87Q927.85,322.2,927.85,289.2Z" transform="translate(-107.89 -214.84)" fill="#8b2e63"/><path d="M939.85,490.72c0,16.33-.11,32.67.09,49,0,3.6-1,4.39-4.47,4.34-9.62-.15-9.62,0-9.62-9.59,0-30.83,0-61.67-.06-92.5,0-3.54.37-5.28,4.69-5.12,9.36.34,9.37.06,9.37,9.37Z" transform="translate(-107.89 -214.84)" fill="#8b2e63"/><path d="M1144.85,310.19c0-16.17.09-32.33-.07-48.5,0-3.46.43-5,4.48-4.83,8.58.3,8.59,0,8.59,8.65,0,31.17-.1,62.33.11,93.5,0,4.33-1.26,5.64-5.27,5a11.42,11.42,0,0,0-3.49,0c-3.47.54-4.48-.75-4.44-4.31C1145,343.19,1144.85,326.69,1144.85,310.19Z" transform="translate(-107.89 -214.84)" fill="#8b2e63"/><path d="M940.85,403.22c0,8.75,0,8.75-8.88,8.75-1.33,0-2.68-.11-4,0-2.32.23-3.46-.55-3.15-3a24.33,24.33,0,0,0,0-3c0-12.25,0-12.14,12.13-12.07,3,0,4.35.62,3.92,3.83A41.42,41.42,0,0,0,940.85,403.22Z" transform="translate(-107.89 -214.84)" fill="#8b2e63"/><path d="M1158.85,223.33c0,8.64,0,8.64-8.88,8.64-6.94,0-6.9,0-6.95-7-.09-12.26.21-9.8,8.66-9.94C1158.84,214.88,1158.85,215,1158.85,223.33Z" transform="translate(-107.89 -214.84)" fill="#8b2e63"/><path d="M440.33,500.52c-6.85,2.94-14,3.45-21.31,2.65-.13-2.25-1.9-3.41-3.28-4.79-9.83-9.87-19.66-19.74-29.57-29.53-1.95-1.92-3.51-3.92-4-6.66l43.92-.15c9.15,0,13.32-4.18,13.39-13.39.06-7.65-.2-15.31.07-23,.14-3.81-.85-5.08-4.88-5-21,.18-41.93-.05-62.9.07-10.22.06-18.75-3.23-25.83-10.75s-14.27-14.44-21.5-21.56A30,30,0,0,1,315.13,366c.06-9.75-1.31-19.66,2.78-29l0,.05L319,335a346.64,346.64,0,0,1,31.28-32c5.2-4.72,11.81-6.73,18.87-6.74q49.45-.05,98.91,0c2.6,0,5.8-.49,7,2.51s-1.39,4.89-3.27,6.69c-9.73,9.31-18.51,19.61-29,28.11l-2.12,1.33.07-.12c-6.25,2.64-12.77,3.24-19.51,3.16-17.48-.19-35-.13-52.43,0-8,0-11.94,4-12.07,11.85-.11,6.16-.15,12.32,0,18.48.19,6.37,4.4,10.77,10.66,10.85,10.48.13,21-.07,31.44-.14,9,.07,18,.2,27,.21a31.41,31.41,0,0,1,23.29,9.65c7.48,7.59,15.07,15.09,22.6,22.63a30.75,30.75,0,0,1,9.22,22.43c.19,28.07.75,28.06-19.82,48-6.32,6.14-12.22,12.73-19.18,18.2-.65-.14-1.2-.1-1.36.71Z" transform="translate(-107.89 -214.84)" fill="#fefefe"/><path d="M148.94,429q.14-24.43.27-48.85c0-8.65.24-17.3-.06-25.94-.36-10.17,2.59-19,9.68-26.3,8.11-7.56,15.76-15.55,23.45-23.54,7.16-7.43,16.68-9.12,26.75-7.77-.48,2.46,1.51,3.53,2.86,4.89q14.61,14.69,29.29,29.31c1.91,1.91,3.71,3.84,3.72,6.78-1.81.11-3.63.3-5.44.31-12.29,0-24.58-.09-36.87,0-7.49.07-11.65,4.35-11.76,11.85-.09,6-.12,12,0,17.94C191,374.57,195.22,379,202,379c10.29.1,20.59-.08,30.88-.14,8.81.06,17.63.24,26.43.12,4.16-.06,7.89.76,11.21,3.29a16.37,16.37,0,0,1,3.24,11.17c-.18,4.13-.23,8.29,0,12.41.32,6.13-1.66,11-7,14.24-.56-.1-1.08-.13-1.23.6,0,0,0-.23,0-.23l-34.7.5c-9.94-.07-19.88-.33-29.82-.14-5.88.11-10,4.64-10.22,10.72-.18,6.46-.09,12.93,0,19.4,0,3.27,1,6.18,3.93,8.1a8.82,8.82,0,0,0,7.13,2.9c8.32,0,16.65-.09,25-.14,11.14.06,22.28.17,33.42.18a30.46,30.46,0,0,1,22.43,9.16c8.11,8.13,16.27,16.2,24.31,24.39,2.47,2.51,4.77,5.33-.27,7.73-2.82.11-5.65.31-8.47.31-31,0-61.93-.06-92.9,0-9.87,0-18.11-3.22-25-10.4-7.14-7.45-14.53-14.66-21.89-21.89a30.78,30.78,0,0,1-9.34-22.39C149.06,442.27,149,435.62,148.94,429Z" transform="translate(-107.89 -214.84)" fill="#d0d1d1"/><path d="M244.9,337.55c0-2.94-1.81-4.87-3.72-6.78q-14.67-14.64-29.29-29.31c-1.35-1.36-3.34-2.43-2.86-4.89q47.42-.16,94.84-.27c2.13,0,4.53.15,5.56,2.52.76,1.75-.37,3.31-1.52,4.46q-14.11,14.12-28.37,28.09a34.08,34.08,0,0,1-4.88,3.36C265.05,339,254.91,337.6,244.9,337.55Z" transform="translate(-107.89 -214.84)" fill="#fefefe"/><path d="M398.82,378.88c-10.48.06-21,.27-31.44.14-6.26-.08-10.48-4.48-10.66-10.85-.18-6.15-.13-12.32,0-18.48.14-7.85,4.1-11.81,12.07-11.85,17.48-.09,35-.15,52.43,0,6.74.07,13.26-.52,19.51-3.16.25,2.41-1.72,3.46-3.06,4.83Q418.27,359.25,398.82,378.88Z" transform="translate(-107.89 -214.84)" fill="#005e73"/><path d="M244.9,337.55c10,.05,20.15,1.43,29.76-2.82,1.29,2.45-1.21,3-2.25,4.1-11.89,12.06-23.9,24-35.85,36-1.28,1.29-2.43,2.7-3.64,4.05-10.29.06-20.59.24-30.88.14-6.82-.07-11.06-4.46-11.21-11.36-.13-6-.1-12,0-17.94.11-7.5,4.27-11.78,11.76-11.85,12.29-.11,24.58,0,36.88,0C241.27,337.85,243.09,337.65,244.9,337.55Z" transform="translate(-107.89 -214.84)" fill="#005e73"/><path d="M319,335l-1.1,2.09C317.95,336.21,318,335.34,319,335Z" transform="translate(-107.89 -214.84)" fill="#005e73"/><path d="M440.64,334.85l2.12-1.33A1.81,1.81,0,0,1,440.64,334.85Z" transform="translate(-107.89 -214.84)" fill="#005e73"/><path d="M440.55,500.75c.16-.81.71-.85,1.36-.71Z" transform="translate(-107.89 -214.84)" fill="#005e73"/><path d="M382.19,462.18c.47,2.74,2,4.74,4,6.66,9.91,9.79,19.74,19.66,29.57,29.53,1.38,1.39,3.15,2.54,3.28,4.79-7.61,1.14-15.27.32-22.91.45-8.83.15-17.66,0-26.49,0-7.61,0-14.64-2.18-20.15-7.42-9.29-8.83-18.23-18-27.21-27.2-1.14-1.16-3.28-2.31-2.19-4.54,1-2.06,3.14-2.38,5.17-2.38Q353.72,462.09,382.19,462.18Z" transform="translate(-107.89 -214.84)" fill="#d0d1d1"/><path d="M230.88,421l34.7-.5c-.05,2.14-1.9,3-3.12,4.3q-17.77,18.55-35.61,37c-8.32.05-16.65.13-25,.14a8.82,8.82,0,0,1-7.13-2.9c.11-2.26,1.89-3.41,3.28-4.76,9.82-9.55,19.7-19,29.51-28.6C228.92,424.37,230.77,423.27,230.88,421Z" transform="translate(-107.89 -214.84)" fill="#00394f"/><path d="M265.56,420.72c.15-.73.68-.7,1.23-.6Z" transform="translate(-107.89 -214.84)" fill="#00394f"/><path d="M230.88,421c-.11,2.27-2,3.37-3.34,4.72-9.81,9.56-19.69,19-29.51,28.6-1.39,1.35-3.17,2.5-3.28,4.76-2.91-1.92-3.89-4.84-3.93-8.1-.07-6.47-.16-12.94,0-19.4.17-6.07,4.34-10.61,10.22-10.72C211,420.67,220.94,420.93,230.88,421Z" transform="translate(-107.89 -214.84)" fill="#005e73"/></svg>