<?xml version="1.0" standalone="no"?>
<!DOCTYPE svg PUBLIC "-//W3C//DTD SVG 20010904//EN"
 "http://www.w3.org/TR/2001/REC-SVG-20010904/DTD/svg10.dtd">
<svg version="1.0" xmlns="http://www.w3.org/2000/svg"
 width="1280.000000pt" height="720.000000pt" viewBox="0 0 1280.000000 720.000000"
 preserveAspectRatio="xMidYMid meet">
<metadata>
Created by potrace 1.15, written by Peter Selinger 2001-2017
</metadata>
<g transform="translate(0.000000,720.000000) scale(0.100000,-0.100000)"
fill="#000000" stroke="none">
<path d="M8330 4605 l0 -745 70 0 70 0 0 745 0 745 -70 0 -70 0 0 -745z"/>
<path d="M9890 5195 l-65 -10 -3 -128 -3 -127 -94 0 -95 0 0 -65 0 -65 95 0
95 0 0 -343 c0 -381 4 -412 63 -488 17 -23 57 -56 87 -73 49 -28 65 -31 157
-34 l103 -4 0 66 0 66 -76 0 c-92 0 -141 23 -173 80 -20 36 -21 50 -21 384 l0
346 135 0 135 0 0 65 0 65 -135 0 -134 0 -3 138 -3 137 -65 -10z"/>
<path d="M588 4945 c-73 -20 -103 -43 -269 -212 -130 -131 -159 -166 -172
-207 -15 -45 -17 -157 -17 -1234 l0 -1184 29 -29 29 -29 1814 0 1813 0 47 23
c67 31 355 315 388 382 l25 50 2 895 3 895 -499 325 -499 325 446 5 c246 3
-349 6 -1323 7 -1419 1 -1779 -1 -1817 -12z m1550 -417 c7 -7 12 -21 12 -32 0
-27 -291 -309 -355 -344 l-50 -27 -362 -5 -363 -5 -27 -28 -28 -27 0 -145 0
-145 28 -27 27 -28 348 -5 c256 -4 353 -8 369 -18 45 -26 55 -63 51 -203 l-3
-129 -33 -32 -32 -33 -350 -5 -350 -5 -27 -28 -28 -27 0 -145 0 -145 28 -27
27 -28 363 -5 362 -5 50 -27 c66 -35 358 -328 353 -353 -2 -11 -16 -22 -36
-27 -18 -5 -270 -7 -560 -6 -488 3 -531 5 -577 22 -70 27 -363 314 -403 396
l-27 55 0 560 c0 528 1 563 19 610 15 38 53 84 163 199 79 82 161 162 181 177
80 58 78 58 672 59 412 0 549 -3 558 -12z m1662 -3 c7 -8 10 -25 6 -38 -9 -36
-282 -300 -346 -333 l-55 -29 -362 -5 -363 -5 -27 -28 -28 -27 0 -145 0 -145
28 -27 27 -28 363 -5 c323 -5 366 -7 402 -24 24 -11 107 -84 208 -184 207
-206 207 -205 207 -420 0 -203 -7 -217 -211 -419 -216 -213 -170 -198 -609
-198 -324 0 -359 2 -405 19 -40 15 -81 50 -212 179 -116 115 -163 168 -163
184 0 13 1 24 3 25 1 1 253 5 560 8 l559 5 29 33 29 32 0 170 0 169 -387 3
c-387 3 -388 3 -438 27 -69 34 -352 317 -386 386 -22 46 -24 61 -24 210 0 215
2 219 212 426 133 131 167 159 213 177 53 20 71 21 606 21 476 1 553 -1 564
-14z"/>
<path d="M5073 4936 c-88 -28 -178 -120 -202 -208 -8 -30 -11 -136 -9 -353 3
-305 3 -311 27 -359 30 -61 87 -117 149 -148 63 -30 232 -38 315 -14 120 35
208 147 222 282 7 70 8 68 -77 79 l-55 7 -5 -66 c-11 -128 -80 -186 -221 -186
-92 0 -131 14 -174 63 -43 49 -53 91 -53 230 l0 117 296 0 297 0 -5 165 c-5
161 -6 166 -37 230 -39 78 -106 137 -183 160 -63 19 -226 19 -285 1z m265
-137 c26 -13 54 -38 70 -62 24 -35 27 -52 30 -143 l4 -104 -226 0 -226 0 0 78
c0 98 13 143 53 189 43 49 79 62 171 63 61 0 90 -5 124 -21z"/>
<path d="M6095 4937 c-56 -19 -81 -33 -124 -72 l-37 -34 -30 49 c-23 40 -34
50 -56 50 l-28 0 0 -535 0 -535 70 0 69 0 3 423 3 424 28 36 c41 54 93 77 172
77 103 0 163 -32 196 -105 17 -37 19 -74 19 -447 l0 -408 70 0 69 0 3 423 3
424 28 36 c41 54 93 77 172 77 103 0 163 -32 196 -105 17 -37 19 -74 19 -447
l0 -408 70 0 71 0 -3 428 -3 427 -28 57 c-35 71 -101 130 -176 159 -120 45
-276 8 -358 -85 l-38 -43 -38 43 c-54 62 -131 97 -226 101 -45 2 -92 -3 -116
-10z"/>
<path d="M8973 4932 c-114 -41 -190 -136 -208 -263 -8 -52 -10 -50 86 -64 l46
-7 5 51 c7 68 44 122 103 151 38 19 59 21 129 19 76 -4 88 -7 123 -35 60 -48
73 -83 73 -201 l0 -101 -177 -4 c-170 -3 -180 -4 -229 -30 -133 -70 -198 -218
-160 -366 39 -155 155 -242 321 -242 92 0 167 26 227 79 l43 39 33 -49 c24
-37 39 -49 58 -49 l25 0 -3 433 c-3 432 -3 432 -27 477 -32 62 -86 117 -146
148 -43 23 -64 26 -160 29 -87 3 -121 0 -162 -15z m357 -694 c0 -152 -9 -181
-73 -232 -35 -28 -47 -31 -119 -35 -128 -5 -193 24 -229 103 -35 77 -17 200
37 248 48 43 74 48 232 48 l152 0 0 -132z"/>
<path d="M11150 4941 c-90 -28 -174 -103 -206 -187 -17 -44 -19 -78 -19 -359
0 -281 2 -315 19 -359 24 -63 86 -130 151 -164 44 -23 65 -27 165 -30 99 -3
123 -1 171 17 75 29 141 88 176 159 l28 57 0 320 0 320 -28 57 c-34 70 -101
131 -173 158 -43 16 -77 20 -157 19 -56 0 -113 -4 -127 -8z m237 -136 c48 -20
71 -41 94 -87 17 -34 19 -62 19 -323 0 -261 -2 -289 -19 -323 -38 -74 -94
-102 -206 -102 -90 0 -139 21 -182 77 l-28 36 0 312 0 312 28 36 c43 57 88 76
180 77 48 0 92 -6 114 -15z"/>
<path d="M12154 4936 c-47 -15 -129 -69 -143 -93 -8 -15 -14 -9 -42 35 -26 43
-37 52 -60 52 l-29 0 0 -535 0 -535 70 0 70 0 0 407 c0 394 1 408 21 451 32
66 85 96 176 100 98 5 137 -3 179 -40 66 -58 64 -44 64 -503 l0 -415 70 0 70
0 0 413 c0 475 -1 483 -77 567 -69 76 -128 103 -238 107 -56 2 -105 -2 -131
-11z"/>
<path d="M7322 4503 l3 -428 28 -57 c35 -71 101 -130 176 -159 117 -44 287
-11 366 70 l28 31 34 -50 c25 -37 40 -50 58 -50 l25 0 0 535 0 535 -70 0 -70
0 0 -412 c0 -463 1 -452 -73 -512 -35 -28 -47 -31 -119 -35 -128 -5 -193 24
-229 103 -17 38 -19 73 -19 449 l0 407 -70 0 -71 0 3 -427z"/>
<path d="M10500 4395 l0 -535 65 0 65 0 0 535 0 535 -65 0 -65 0 0 -535z"/>
<path d="M8300 3470 l0 -90 80 0 80 0 0 90 0 90 -80 0 -80 0 0 -90z"/>
<path d="M5993 3398 l-53 -10 0 -129 0 -129 -95 0 -95 0 0 -65 0 -65 95 0 94
0 3 -372 3 -373 27 -45 c59 -101 133 -140 275 -148 l93 -5 0 65 0 65 -79 5
c-97 6 -138 27 -168 88 -23 43 -23 52 -23 382 l0 338 135 0 135 0 0 65 0 65
-135 0 -135 0 0 140 c0 106 -3 140 -12 139 -7 -1 -37 -6 -65 -11z"/>
<path d="M7693 3398 l-53 -10 0 -129 0 -129 -95 0 -95 0 0 -65 0 -65 95 0 94
0 3 -372 3 -373 27 -45 c59 -101 133 -140 275 -148 l93 -5 0 65 0 65 -79 5
c-97 6 -138 27 -168 88 -23 43 -23 52 -23 382 l0 338 135 0 135 0 0 65 0 65
-135 0 -135 0 0 140 c0 106 -3 140 -12 139 -7 -1 -37 -6 -65 -11z"/>
<path d="M5077 3136 c-126 -45 -197 -146 -197 -279 0 -82 17 -130 63 -183 49
-56 99 -81 252 -129 146 -45 183 -63 223 -109 71 -81 49 -185 -51 -239 -35
-18 -58 -22 -137 -22 -83 0 -101 3 -138 25 -58 33 -92 92 -99 170 -5 49 -9 60
-22 56 -9 -3 -38 -8 -65 -12 l-48 -7 4 -71 c8 -119 73 -211 187 -265 51 -24
66 -26 181 -26 116 0 130 3 186 29 118 54 178 147 177 272 -1 118 -50 197
-155 250 -28 14 -104 43 -170 64 -197 64 -248 106 -248 205 0 64 26 108 81
135 36 19 55 21 139 18 88 -3 100 -5 134 -32 43 -32 75 -95 76 -145 l0 -33 48
7 c93 13 93 13 86 54 -15 90 -37 136 -93 192 -74 74 -120 89 -265 89 -67 -1
-126 -6 -149 -14z"/>
<path d="M6752 3119 c-34 -17 -77 -49 -97 -71 -41 -49 -75 -133 -75 -187 0
-39 0 -39 48 -45 26 -4 55 -9 64 -12 14 -4 18 4 24 44 9 67 41 122 89 150 35
20 51 22 136 20 88 -3 99 -5 133 -32 57 -43 76 -93 76 -202 l0 -92 -167 -5
c-192 -5 -237 -16 -305 -77 -24 -21 -57 -62 -73 -91 -28 -50 -30 -62 -30 -154
0 -89 3 -106 27 -151 32 -60 94 -119 157 -147 36 -17 66 -22 141 -22 109 0
160 18 228 80 l41 36 33 -50 c27 -41 38 -51 61 -51 l28 0 -3 423 c-5 491 -3
484 -97 578 -74 74 -120 89 -266 89 -105 0 -116 -2 -173 -31z m398 -666 c0
-103 -4 -136 -19 -168 -35 -77 -102 -115 -198 -115 -75 0 -125 14 -163 47
-111 93 -78 302 55 348 27 10 87 14 183 15 l142 0 0 -127z"/>
<path d="M8930 3133 c-65 -23 -152 -113 -176 -183 -17 -49 -19 -86 -19 -360
l0 -305 26 -55 c33 -70 89 -126 159 -159 50 -24 66 -26 175 -26 101 0 127 3
166 21 64 30 125 88 157 148 l27 51 0 335 c0 329 0 336 -23 377 -12 23 -35 57
-51 76 -35 40 -126 91 -147 83 -9 -3 -12 -1 -9 4 11 17 -233 11 -285 -7z m290
-133 c91 -46 103 -99 98 -438 -4 -282 -6 -293 -68 -345 -82 -69 -257 -61 -327
14 -49 54 -53 79 -53 371 0 243 2 277 19 313 36 79 86 105 204 105 68 0 97 -4
127 -20z"/>
<path d="M9957 3136 c-40 -15 -103 -58 -127 -88 -15 -18 -17 -16 -45 32 -24
40 -35 50 -57 50 l-28 0 0 -535 0 -535 70 0 70 0 0 418 c0 414 0 417 23 457
35 62 85 85 189 85 125 0 171 -23 209 -105 17 -37 19 -73 19 -447 l0 -408 71
0 70 0 -3 423 c-3 385 -5 426 -23 472 -25 68 -114 156 -179 178 -60 21 -204
22 -259 3z"/>
<path d="M8310 2595 l0 -535 70 0 70 0 0 535 0 535 -70 0 -70 0 0 -535z"/>
</g>
</svg>
