<?xml version="1.0" encoding="utf-8"?>
<!-- Generator: Adobe Illustrator 16.0.0, SVG Export Plug-In . SVG Version: 6.00 Build 0)  -->
<!DOCTYPE svg PUBLIC "-//W3C//DTD SVG 1.1//EN" "http://www.w3.org/Graphics/SVG/1.1/DTD/svg11.dtd">
<svg version="1.1" id="Layer_1" xmlns="http://www.w3.org/2000/svg" xmlns:xlink="http://www.w3.org/1999/xlink" x="0px" y="0px"
	 width="612px" height="792px" viewBox="0 0 612 792" enable-background="new 0 0 612 792" xml:space="preserve">
<g>
	<path fill-rule="evenodd" clip-rule="evenodd" fill="#008CA0" d="M-328.047,311.446c0.913-3.523,3.253-6.107,5.723-8.584
		c7.997-8.021,16.009-16.027,24.025-24.027c5.694-5.684,12.632-8.492,20.622-8.492c116.094-0.012,232.188,0.002,348.281,0.033
		c8.951,0.002,12.742,4.191,12.748,14.018c0.03,51.135,0.03,102.27,0.042,153.403c0.006,22.154-0.084,44.307,0.063,66.459
		c0.064,9.664-3.158,17.607-10.187,24.344c-7.559,7.246-14.654,14.971-21.982,22.455c-2.933,2.996-6.129,5.633-10.307,6.746
		c-0.098-2.145-1.665-2.953-3.258-3.982c-13.056-8.438-26.029-17.002-39.073-25.457c-3.137-2.033-3.604-4.008-0.666-6.627
		c1.697-1.514,3.612-3.045,3.315-5.77l0.218,0.227c0.453-0.236,0.907-0.473,1.36-0.709c6.956-5.471,12.855-12.055,19.177-18.195
		c20.563-19.969,20.007-19.957,19.815-48.029c-0.06-8.789-3.039-16.238-9.219-22.434c-7.53-7.547-15.117-15.039-22.601-22.633
		c-6.427-6.521-14.178-9.644-23.293-9.655c-8.989-0.014-17.978-0.135-26.967-0.209c12.945-13.105,25.901-26.199,38.817-39.33
		c1.343-1.365,3.317-2.416,3.063-4.828l-0.067,0.123c1.008,0.039,1.818-0.234,2.116-1.328c10.512-8.5,19.284-18.799,29.018-28.105
		c1.88-1.797,4.484-3.697,3.268-6.688c-1.219-2.994-4.413-2.502-7.017-2.506c-32.969-0.027-65.938-0.025-98.907,0.01
		c-7.065,0.008-13.677,2.016-18.874,6.736c-11.048,10.037-21.599,20.605-31.279,32c-0.965,0.379-1.013,1.242-1.098,2.086
		l0.043-0.051c-3.046-0.52-4.584,1.75-6.09,3.617c-7.542,9.346-16.648,17.156-25.015,25.689
		c-5.317,5.422-10.816,10.668-16.232,15.993c-3.318-2.53-7.05-3.345-11.212-3.286c-8.809,0.123-17.622-0.059-26.435-0.117
		c1.21-1.355,2.36-2.77,3.641-4.055c11.953-12.004,23.958-23.957,35.848-36.021c1.035-1.051,3.537-1.645,2.25-4.1
		c1.637-1.107,3.485-2,4.877-3.357c9.521-9.301,18.966-18.678,28.375-28.092c1.156-1.156,2.283-2.713,1.521-4.465
		c-1.029-2.365-3.433-2.523-5.563-2.52c-31.614,0.053-63.229,0.172-94.843,0.275c-10.07-1.355-19.596,0.338-26.753,7.77
		c-7.688,7.982-15.343,15.977-23.449,23.535c0.029-2.338-2.016-2.885-3.46-3.838c-9.389-6.193-18.799-12.359-28.254-18.451
		C-317.176,317.636-322.11,313.692-328.047,311.446z"/>
	<path fill-rule="evenodd" clip-rule="evenodd" fill="#005E73" d="M1.301,515.965c0.297,2.725-1.618,4.256-3.315,5.77
		c-2.938,2.619-2.471,4.594,0.666,6.627c13.044,8.455,26.018,17.02,39.073,25.457c1.593,1.029,3.16,1.838,3.258,3.982
		c-3.459,1.793-7.159,2.576-11.029,2.578c-66.871,0.021-133.743,0.037-200.614,0.047c-0.495,0-0.989-0.104-1.484-0.16
		c12.147-12.271,24.306-24.535,36.427-36.834c1.363-1.383,3.225-2.463,3.436-4.709c5.039-2.396,2.741-5.217,0.27-7.73
		c-8.044-8.186-16.207-16.258-24.313-24.385c-6.193-6.207-13.69-9.146-22.43-9.156c-11.141-0.012-22.281-0.115-33.422-0.18
		c11.876-12.336,23.766-24.66,35.611-37.027c1.219-1.271,3.062-2.162,3.113-4.305l-0.022,0.229c0.411-0.201,0.822-0.4,1.232-0.6
		c5.352-3.264,7.337-8.111,7.013-14.242c-0.218-4.127-0.172-8.283,0.008-12.414c0.18-4.137-0.701-7.867-3.241-11.166
		c5.417-5.325,10.916-10.571,16.233-15.993c8.367-8.533,17.473-16.344,25.015-25.689c1.506-1.867,3.044-4.137,6.09-3.617
		c-4.085,9.373-2.713,19.289-2.775,29.035c-0.056,8.705,3.076,16.194,9.338,22.364c7.231,7.123,14.539,14.18,21.5,21.563
		c7.086,7.516,15.615,10.809,25.834,10.748c20.965-0.119,41.933,0.115,62.898-0.068c4.031-0.035,5.019,1.229,4.882,5.043
		c-0.272,7.645-0.015,15.307-0.072,22.959c-0.069,9.213-4.248,13.354-13.394,13.389c-14.642,0.059-29.283,0.102-43.925,0.15
		c-18.981-0.043-37.962-0.1-56.943-0.109c-2.033,0-4.159,0.324-5.171,2.381c-1.094,2.223,1.052,3.377,2.19,4.537
		c8.978,9.16,17.916,18.371,27.21,27.203c5.512,5.238,12.543,7.383,20.151,7.416c8.83,0.039,17.661,0.152,26.488,0.004
		c7.636-0.127,15.292,0.693,22.907-0.447C-12.695,519.414-5.547,518.904,1.301,515.965z"/>
	<path fill-rule="evenodd" clip-rule="evenodd" fill="#00394F" d="M-132.283,518.723c-0.211,2.246-2.073,3.326-3.436,4.709
		c-12.121,12.299-24.28,24.563-36.427,36.834c-37.299,0.053-74.598,0.109-111.897,0.154c-11.823,0.016-23.647,0.072-35.47-0.029
		c-7.066-0.061-11.617-4.492-11.621-11.561c-0.021-42.793,0.066-85.588,0.116-128.383c8.949,3.434,15.844,10.246,24.137,14.709
		c5.628,3.031,9.997,8.365,16.789,9.252c0.073,6.654,0.12,13.309,0.224,19.961c0.136,8.699,3.059,16.219,9.344,22.395
		c7.363,7.232,14.759,14.439,21.895,21.895c6.872,7.178,15.111,10.43,24.978,10.402c30.965-0.09,61.93-0.014,92.896-0.027
		C-137.931,519.031-135.107,518.83-132.283,518.723z"/>
	<path fill-rule="evenodd" clip-rule="evenodd" fill="#8B2E63" d="M303.375,285.185c10.721-16.316,32.877-19.352,47.473-8.766
		c8.41,6.1,12.697,14.666,12.846,24.727c0.363,24.816,0.063,49.641,0.191,74.461c0.016,3.094-0.814,3.891-3.889,3.891
		c-10.184,0.002-10.184,0.139-10.184-10.014c0-22.322,0.004-44.645-0.002-66.967c-0.004-11.469-7.605-18.818-19.02-19.189
		c-8.594-0.277-15.932,1.266-20.752,9.25c-1.6,2.648-2.246,5.324-2.242,8.332c0.027,24.654-0.074,49.309,0.111,73.961
		c0.027,3.775-0.959,4.73-4.678,4.641c-9.414-0.227-9.418-0.031-9.418-9.293c0-22.654,0.008-45.311-0.004-67.965
		c-0.006-11.158-7.664-18.525-18.781-18.928c-8.785-0.318-16.236,1.293-21.173,9.445c-1.639,2.703-2.053,5.42-2.051,8.402
		c0.016,24.486-0.09,48.977,0.109,73.461c0.033,3.99-1.082,4.982-4.945,4.875c-9.148-0.256-9.154-0.057-9.154-9.055
		c0-31.15-0.023-62.303,0.068-93.453c0.004-1.51-1.361-3.945,1.438-4.51c2.311-0.465,4.326-0.186,5.514,2.6
		c1.066,2.504,2.904,4.678,4.393,6.984C263.928,265.239,290.561,266.386,303.375,285.185z"/>
	<path fill-rule="evenodd" clip-rule="evenodd" fill="#005E73" d="M-290.091,444.408c-6.792-0.887-11.161-6.221-16.789-9.252
		c-8.293-4.463-15.188-11.275-24.137-14.709c-0.034-32.872-0.104-65.745-0.05-98.616c0.006-3.65,1.086-7.193,3.02-10.385
		c5.937,2.246,10.871,6.189,16.127,9.578c9.455,6.092,18.865,12.258,28.254,18.451c1.444,0.953,3.489,1.5,3.46,3.838
		c-7.091,7.346-10.035,16.127-9.678,26.301c0.303,8.637,0.101,17.293,0.064,25.939
		C-289.888,411.838-289.998,428.123-290.091,444.408z"/>
	<path fill-rule="evenodd" clip-rule="evenodd" fill="#8B2E63" d="M384.813,519.682c0,11.988,0.033,23.979-0.051,35.967
		c-0.008,1.262,1.012,3.422-1.273,3.613c-1.684,0.143-3.713,1.168-5.078-1.545c-1.439-2.857-3.336-6.629-5.871-7.469
		c-2.539-0.842-4.43,3.533-6.906,5.33c-12.572,9.119-35.053,8.123-46.164-6.045c-7.594-9.684-8.908-20.891-4.973-32.029
		c3.986-11.287,12.283-18.344,24.787-20.215c9.283-1.387,18.52-0.619,27.771-0.773c3.162-0.053,4.068-0.957,3.795-3.967
		c-0.576-6.326,1.195-12.848-1.959-18.967c-3.371-6.537-8.396-10.35-15.916-10.135c-5.84,0.166-11.752-1.006-17.334,2.438
		c-4.645,2.865-6.455,7.084-7.814,11.846c-0.088,0.309,0.002,0.664-0.018,0.996c-0.223,4.039-0.754,6.893-6.428,5.857
		c-7.738-1.41-8.766-2.836-6.773-10.688c3.021-11.906,10.439-19.158,21.922-22.75c16.68-5.215,34.412,0.383,43.363,13.912
		c3.924,5.93,4.594,12.875,4.814,19.658C385.086,496.361,384.813,508.025,384.813,519.682z M356.955,507.414
		c-3.949,0-7.109,0.047-10.266-0.008c-17.881-0.307-23.863,16.59-18.967,29.818c5.053,13.65,28.607,13.904,36.563,6.359
		c6.365-6.037,6.844-13.41,6.539-21.271c-0.186-4.781,1.531-11.049-0.869-13.945C367.416,505.305,360.914,507.834,356.955,507.414z"
		/>
	<path fill-rule="evenodd" clip-rule="evenodd" fill="#8B2E63" d="M184.299,327.415c-8.498,0-17.002,0.17-25.494-0.084
		c-3.404-0.102-4.26,1.059-4.039,4.223c0.543,7.734-0.896,15.559,1.051,23.242c1.547,6.1,8.998,14.236,17.23,13.654
		c4.141-0.293,8.463,0.473,12.434-0.432c9.48-2.158,14.525-9.27,14.211-20c-0.143-4.814,1.961-5.318,5.563-4.324
		c1.109,0.307,2.156,0.652,3.33,0.746c5.531,0.436,5.201,0.852,4.688,6.355c-0.629,6.715-2.314,12.684-6.297,18.188
		c-5.678,7.844-13.449,11.602-22.783,12.365c-4.635,0.379-9.34,0.301-13.988,0.021c-15.08-0.904-28.174-13.916-28.348-28.922
		c-0.191-16.662,0.617-33.361-0.229-49.982c-0.855-16.873,14.756-33.502,32.498-32.08c5.242,0.42,10.49-0.25,15.77,0.941
		c12.016,2.715,22.121,14.789,23.145,27.18c0.699,8.463,0.348,16.877,0.816,25.297c0.156,2.789-0.648,3.74-3.563,3.678
		C201.631,327.294,192.963,327.413,184.299,327.415z M177.387,316.413c6.332,0,12.666-0.092,18.996,0.047
		c2.459,0.055,3.646-0.441,3.486-3.244c-0.229-3.986,0.268-8.029-0.135-11.986c-0.605-5.967-2.668-11.078-8.154-14.744
		c-5.779-3.861-11.961-2.973-18.127-3.039c-8.51-0.094-15.549,5.896-17.727,14.158c-1.43,5.43-0.531,10.854-0.934,16.262
		c-0.186,2.488,1.25,2.582,3.1,2.566C164.391,316.382,170.889,316.413,177.387,316.413z"/>
	<path fill-rule="evenodd" clip-rule="evenodd" fill="#8B2E63" d="M591.171,369.321c-8.625,10.754-20.078,13.621-32.543,11.947
		c-14.012-1.881-23.328-10.162-26.713-24.238c-3.037-12.633,0.322-23.646,10.172-32.334c5.014-4.422,10.961-7.082,17.711-7.234
		c8.486-0.193,16.982-0.164,25.471,0.018c2.871,0.061,3.768-0.818,3.6-3.645c-0.227-3.816-0.055-7.656-0.055-11.486
		c-0.002-11.672-7.258-18.953-18.92-18.922c-4.098,0.01-8.234-0.451-12.227,1.053c-6.895,2.6-11.871,9.355-11.76,16.982
		c0.057,3.873-1.381,4.662-4.666,3.672c-0.469-0.141-0.869-0.537-1.338-0.635c-9.316-1.938-9.51-2.043-6.65-10.977
		c4.367-13.648,14.145-23.037,31.303-23.145c7.92-0.049,15.809-0.291,22.83,4.26c9.197,5.961,15.207,14.145,15.336,25.316
		c0.291,24.973,0.119,49.949,0.023,74.924c-0.006,1.496,1.346,3.836-1.443,4.488c-2.41,0.564-4.146-0.57-5.408-2.564
		C594.419,374.474,592.95,372.142,591.171,369.321z M588.812,342.202c0-3.496-0.16-7.002,0.053-10.484
		c0.162-2.654-0.758-3.412-3.373-3.359c-7.654,0.158-15.314,0.047-22.973,0.059c-8.436,0.014-15.436,5.314-17.313,14.336
		c-1.746,8.389-0.006,18.168,8.217,22.959c5.717,3.332,11.734,2.646,17.758,2.68c9.869,0.051,17.605-7.783,17.631-17.699
		C588.819,347.862,588.813,345.032,588.812,342.202z"/>
	<path fill-rule="evenodd" clip-rule="evenodd" fill="#8B2E63" d="M747.813,326.104c0-7.83,0.146-15.664-0.029-23.49
		c-0.404-18.037,14.646-32.91,32.193-32.301c9.219,0.322,18.201-0.072,26.342,5.805c8.682,6.268,13.105,14.617,13.375,24.869
		c0.438,16.648,0.467,33.326,0.023,49.975c-0.477,17.867-15.074,30.623-31.365,30.455c-8.336-0.088-16.68,0.76-24.449-3.895
		c-9.963-5.965-15.34-14.588-15.994-25.934C747.421,343.12,747.813,334.601,747.813,326.104z M805.813,326.077
		c0-8.492,0.158-16.988-0.053-25.477c-0.16-6.516-3.342-11.414-8.99-14.762c-5.475-3.244-11.49-2.08-17.352-2.479
		c-8.059-0.547-17.965,8.723-17.736,17.416c0.445,16.807,0.115,33.635,0.139,50.453c0.008,6.689,3.547,11.16,8.934,14.732
		c5,3.314,10.473,2.119,15.828,2.482c9.916,0.676,20.082-7.889,19.324-19.395C805.407,341.423,805.813,333.737,805.813,326.077z"/>
	<path fill-rule="evenodd" clip-rule="evenodd" fill="#8B2E63" d="M600.813,505.266c0,8.824,0.018,17.65-0.004,26.477
		c-0.033,13.432-11.596,26.539-24.912,28.729c-10.4,1.709-20.697,2.039-30.141-3.172c-9.102-5.021-14.84-12.584-16.041-23.492
		c-1.881-17.08-0.975-34.184-0.699-51.242c0.236-14.516,7.02-28.049,23.686-31.186c13.959-2.627,28.803-3.748,40.027,8.533
		c5.078,5.555,8.189,12.08,8.105,19.877C600.741,488.279,600.813,496.773,600.813,505.266z M542.813,505.348
		c0,7.826-0.035,15.654,0.027,23.48c0.014,1.607,0.014,3.158,0.574,4.836c3.496,10.496,9.67,14.686,22.01,14.768
		c14.693,0.096,21.967-7.266,22.311-21.371c0.352-14.48,0.391-28.984-0.041-43.461c-0.258-8.67-3.025-16.346-12.576-19.447
		c-4.418-1.436-8.871-0.205-13.264-0.756c-10.643-1.332-19.467,8.926-19.098,18.971
		C543.038,490.018,542.813,497.686,542.813,505.348z"/>
	<path fill-rule="evenodd" clip-rule="evenodd" fill="#8B2E63" d="M154.395,522.303c0.982,3.65,0.324,7.102,1.25,10.535
		c1.799,6.658,5.355,11.412,11.818,13.721c8.148,2.912,16.293,2.844,24.34-0.607c6.109-2.621,9.852-7.01,9.963-13.799
		c0.119-7.211-4.125-11.963-9.986-15.191c-8.594-4.734-18.305-6.484-27.533-9.5c-25.221-8.244-25.477-36.877-11.654-49.24
		c5.6-5.008,12.195-8.211,19.994-7.783c7.51,0.412,15.166-1.348,22.488,1.924c10.305,4.604,16.777,12.266,18.553,23.393
		c0.322,2.027,2.758,5.232,0.426,6.264c-3.605,1.594-7.873,1.799-11.898,2.281c-1.771,0.211-1.313-1.576-1.32-2.617
		c-0.084-10.344-8.688-19.564-19.752-18.32c-5.322,0.6-10.598-0.34-15.947,2.129c-9.686,4.471-9.547,21.301-1.291,26.096
		c6.002,3.484,12.268,5.857,18.795,7.814c8.266,2.477,16.387,5.121,23.377,10.553c4.316,3.354,7.123,7.629,8.354,12.668
		c1.758,7.203,1.568,14.406-1.74,21.389c-4.113,8.684-11.338,13.725-20.084,15.893c-9.402,2.33-19.123,2.623-28.682-0.4
		c-13.582-4.297-23.436-17.209-22.129-32.035c0.203-2.324,0.832-2.711,3.059-3.234C147.977,523.484,151.338,524.014,154.395,522.303
		z"/>
	<path fill-rule="evenodd" clip-rule="evenodd" fill="#005E73" d="M856.062,282.245c5.447-6.781,12.361-10.664,20.447-11.652
		c14.607-1.785,26.984,2.367,35.283,15.408c2.588,4.064,3.904,8.605,3.922,13.354c0.096,25.33-0.02,50.662,0.123,75.992
		c0.02,3.322-0.941,4.121-4.156,4.094c-9.813-0.086-9.813,0.055-9.813-9.854c0-22.998,0.002-45.996-0.002-68.994
		c0-7.9-5.627-15.898-13.629-16.816c-7.457-0.855-15.367-2.152-22.439,2.92c-5.379,3.859-7.994,8.848-8.012,15.238
		c-0.068,23.998-0.121,47.996,0.063,71.992c0.031,4.084-0.514,5.822-5.254,5.57c-8.709-0.465-8.727-0.123-8.727-8.99
		c0-31.164-0.023-62.328,0.068-93.492c0.004-1.496-1.365-3.959,1.434-4.467c2.484-0.453,4.764-0.289,5.961,2.848
		C852.298,277.933,853.933,280.271,856.062,282.245z"/>
	<path fill-rule="evenodd" clip-rule="evenodd" fill="#8B2E63" d="M637.354,462.139c6.279-7.027,13.398-11.875,23.182-11.766
		c7.877,0.09,15.555-0.203,22.652,4.654c9.646,6.602,14.262,15.877,14.477,26.922c0.475,24.477,0.08,48.969,0.227,73.453
		c0.02,3.35-1.004,4.111-4.189,4.09c-9.889-0.066-9.889,0.068-9.889-9.803c0-22.486,0.01-44.973-0.004-67.461
		c-0.008-11.307-7.477-18.936-18.676-18.762c-5.678,0.088-11.49-1.154-16.92,2.107c-5.414,3.254-8.316,7.885-8.348,14.004
		c-0.127,24.818-0.158,49.639,0.049,74.455c0.035,4.238-0.76,5.73-5.348,5.508c-8.74-0.422-8.754-0.111-8.754-8.982
		c0-31.148-0.021-62.297,0.064-93.445c0.004-1.541-1.291-3.941,1.334-4.598c2.553-0.637,4.57-0.076,5.727,2.947
		C633.841,457.828,635.759,459.805,637.354,462.139z"/>
	<path fill-rule="evenodd" clip-rule="evenodd" fill="#8B2E63" d="M448.179,369.446c-8.158,9.982-19.039,12.869-31.319,11.965
		c-13.566-0.998-25.773-11.605-28.139-24.574c-0.842-4.613-0.898-9.17-0.902-13.777c-0.014-21.99,0.07-43.979-0.086-65.967
		c-0.023-3.527,0.555-4.9,4.527-4.791c9.545,0.266,9.553,0.031,9.553,9.674c0,22.488-0.008,44.977,0.002,67.465
		c0.006,11.406,7.643,18.92,19.149,18.988c7.064,0.043,14.1,0.664,19.729-5.256c3.395-3.568,5.141-7.426,5.135-12.275
		c-0.031-24.488,0.1-48.977-0.123-73.463c-0.039-4.229,1.098-5.271,5.215-5.125c8.885,0.318,8.895,0.082,8.895,8.824
		c0,31.15,0.021,62.301-0.064,93.453c-0.004,1.57,1.256,3.932-1.178,4.703c-2.479,0.787-4.41-0.365-5.748-2.682
		C451.452,374.239,449.851,372.003,448.179,369.446z"/>
	<path fill-rule="evenodd" clip-rule="evenodd" fill="#8B2E63" d="M651.813,244.858c0,8.063,0.135,15.883-0.068,23.693
		c-0.078,3.002,0.643,4.07,3.83,3.941c6.484-0.262,12.986,0.018,19.477-0.125c2.568-0.057,3.807,0.297,3.85,3.404
		c0.137,9.645,0.293,9.643-9.555,9.643c-4.828,0-9.66,0.113-14.484-0.047c-2.412-0.08-3.102,0.748-3.094,3.119
		c0.078,21.313-0.061,42.625,0.105,63.938c0.053,6.854,7.061,13.568,13.914,13.971c2.158,0.125,4.328,0.02,6.494,0.02
		c6.531,0,6.531,0,6.531,6.58c0,6.418-0.008,6.229-6.691,6.471c-7.336,0.266-14.42-0.283-20.834-4.258
		c-8.961-5.553-13.191-14.027-13.371-24.17c-0.352-19.807-0.332-39.629,0.045-59.436c0.104-5.438-1.619-6.963-6.584-6.23
		c-1.793,0.264-3.658,0.043-5.488,0.043c-7.08,0-7.08,0-7.076-7.037c0.002-5.963,0.002-5.963,7.648-5.963
		c11.352,0,11.352,0,11.352-11.254c0-1.332,0-2.664,0-3.996c0-11.043,0-11.037,11.1-11.77
		C649.729,245.343,650.532,245.101,651.813,244.858z"/>
	<path fill-rule="evenodd" clip-rule="evenodd" fill="#8B2E63" d="M419.813,501.412c0-10.666-0.143-21.332,0.082-31.992
		c0.07-3.377-1.021-4.271-4.208-4.066c-3.982,0.256-7.996-0.025-11.992,0.094c-2.086,0.064-2.803-0.537-2.951-2.77
		c-0.678-10.27-0.766-10.264,9.432-10.264c9.638,0,9.638,0,9.638-9.484c0-3.666,0.443-7.4-0.111-10.98
		c-0.721-4.654,1.768-5.883,5.438-6.502c7.674-1.299,7.674-1.305,7.674,6.619c0,5.664,0.117,11.334-0.053,16.994
		c-0.078,2.572,0.629,3.49,3.326,3.414c6.494-0.188,13,0.066,19.492-0.115c2.994-0.084,4.385,0.377,4.336,3.947
		c-0.125,9.105,0.08,9.107-9.115,9.107c-4.832,0-9.666,0.096-14.494-0.039c-2.375-0.066-3.57,0.307-3.555,3.174
		c0.117,20.662-0.066,41.324,0.123,61.984c0.082,8.959,7.047,15.311,16.619,15.869c1.328,0.078,2.697,0.199,3.992-0.021
		c5.172-0.879,6.834,1.1,6.447,6.342c-0.492,6.664-0.119,6.643-7.041,6.703c-11.916,0.102-22.367-2.799-29.207-13.625
		c-2.512-3.973-3.857-8.223-3.865-12.896C419.802,522.406,419.813,511.908,419.813,501.412z"/>
	<path fill-rule="evenodd" clip-rule="evenodd" fill="#8B2E63" d="M249.813,501.422c0-10.666-0.141-21.332,0.082-31.992
		c0.068-3.359-0.996-4.287-4.197-4.078c-3.982,0.26-7.996-0.021-11.992,0.096c-2.072,0.061-2.811-0.518-2.961-2.76
		c-0.689-10.279-0.779-10.273,9.422-10.273c9.646,0,9.646,0,9.646-9.475c0-3.666,0.441-7.4-0.111-10.98
		c-0.713-4.639,1.746-5.891,5.428-6.514c7.686-1.299,7.684-1.309,7.684,6.611c0,5.498,0.166,11.004-0.066,16.492
		c-0.127,3.01,0.643,4.072,3.832,3.943c6.488-0.262,13.002,0.111,19.488-0.156c3.223-0.135,3.826,1.002,3.82,3.961
		c-0.02,9.117,0.109,9.117-9.078,9.117c-4.832,0-9.666,0.092-14.496-0.037c-2.359-0.064-3.578,0.281-3.562,3.162
		c0.117,20.662-0.066,41.324,0.123,61.984c0.08,8.959,7.039,15.316,16.609,15.879c1.328,0.078,2.697,0.199,3.994-0.021
		c5.15-0.871,6.848,1.07,6.455,6.332c-0.496,6.674-0.119,6.652-7.031,6.713c-11.914,0.102-22.369-2.789-29.21-13.617
		c-2.51-3.975-3.865-8.221-3.871-12.895C249.801,522.416,249.813,511.918,249.813,501.422z"/>
	<path fill-rule="evenodd" clip-rule="evenodd" fill="#8B2E63" d="M488.813,304.647c0-23.166,0.064-46.334-0.072-69.498
		c-0.02-3.434,0.393-4.971,4.467-4.854c9.598,0.279,9.605,0.029,9.605,9.637c0,44.832-0.068,89.666,0.109,134.498
		c0.018,4.301-1.211,5.221-5.256,5.084c-8.846-0.303-8.854-0.08-8.854-8.869C488.813,348.646,488.813,326.647,488.813,304.647z"/>
	<path fill-rule="evenodd" clip-rule="evenodd" fill="#8B2E63" d="M500.813,506.164c0,16.334-0.115,32.668,0.09,48.998
		c0.045,3.604-1.049,4.393-4.467,4.338c-9.621-0.154-9.623,0.006-9.623-9.586c0-30.832,0.047-61.666-0.064-92.498
		c-0.014-3.543,0.373-5.281,4.693-5.123c9.361,0.338,9.371,0.063,9.371,9.373C500.813,476.498,500.813,491.332,500.813,506.164z"/>
	<path fill-rule="evenodd" clip-rule="evenodd" fill="#8B2E63" d="M705.813,325.634c0-16.166,0.094-32.334-0.074-48.5
		c-0.037-3.459,0.432-4.977,4.484-4.834c8.58,0.301,8.59,0.037,8.59,8.646c0,31.166-0.1,62.334,0.113,93.498
		c0.029,4.33-1.262,5.639-5.273,4.998c-1.139-0.182-2.354-0.176-3.492,0c-3.469,0.535-4.48-0.748-4.436-4.311
		C705.925,358.634,705.813,342.134,705.813,325.634z"/>
	<path fill-rule="evenodd" clip-rule="evenodd" fill="#8B2E63" d="M501.813,418.666c0,8.748,0,8.748-8.877,8.748
		c-1.332,0-2.676-0.109-3.996,0.023c-2.318,0.234-3.457-0.547-3.146-3.027c0.123-0.984,0.02-1.996,0.02-2.996
		c-0.006-12.246-0.006-12.143,12.125-12.074c2.969,0.018,4.352,0.619,3.918,3.832C501.614,414.973,501.813,416.832,501.813,418.666z
		"/>
	<path fill-rule="evenodd" clip-rule="evenodd" fill="#8B2E63" d="M719.813,238.778c0,8.639,0,8.639-8.879,8.637
		c-6.936-0.002-6.896-0.002-6.947-7.041c-0.088-12.262,0.205-9.805,8.66-9.936C719.812,230.325,719.813,230.415,719.813,238.778z"/>
	<path fill-rule="evenodd" clip-rule="evenodd" fill="#FEFEFE" d="M1.301,515.965c-6.848,2.939-13.996,3.449-21.309,2.648
		c-0.131-2.254-1.903-3.406-3.282-4.791c-9.833-9.867-19.658-19.744-29.571-29.531c-1.947-1.922-3.514-3.924-3.979-6.662
		c14.642-0.049,29.283-0.092,43.925-0.15c9.146-0.035,13.324-4.176,13.394-13.389c0.058-7.652-0.2-15.314,0.072-22.959
		c0.137-3.814-0.851-5.078-4.882-5.043c-20.965,0.184-41.933-0.051-62.898,0.068c-10.22,0.061-18.748-3.232-25.834-10.748
		c-6.96-7.383-14.269-14.439-21.5-21.563c-6.263-6.17-9.394-13.659-9.338-22.364c0.062-9.746-1.31-19.662,2.775-29.035l-0.043,0.051
		c0.366-0.695,0.732-1.391,1.098-2.086c9.68-11.395,20.231-21.963,31.279-32c5.197-4.721,11.809-6.729,18.874-6.736
		c32.969-0.035,65.938-0.037,98.907-0.01c2.604,0.004,5.798-0.488,7.017,2.506c1.217,2.99-1.388,4.891-3.268,6.688
		c-9.733,9.307-18.506,19.605-29.018,28.105c-0.705,0.443-1.411,0.887-2.116,1.328l0.067-0.123
		c-6.248,2.639-12.765,3.238-19.509,3.164c-17.476-0.189-34.955-0.127-52.432-0.041c-7.971,0.039-11.937,3.998-12.073,11.85
		c-0.107,6.156-0.153,12.32,0.027,18.475c0.186,6.369,4.402,10.77,10.663,10.848c10.479,0.133,20.962-0.074,31.443-0.137
		c8.989,0.074,17.978,0.195,26.967,0.209c9.115,0.012,16.866,3.134,23.293,9.655c7.483,7.594,15.07,15.086,22.601,22.633
		c6.18,6.195,9.159,13.645,9.219,22.434c0.191,28.072,0.747,28.061-19.815,48.029c-6.321,6.141-12.221,12.725-19.178,18.195
		c-0.651-0.143-1.204-0.098-1.359,0.709L1.301,515.965z"/>
	<path fill-rule="evenodd" clip-rule="evenodd" fill="#D0D1D1" d="M-290.091,444.408c0.093-16.285,0.203-32.57,0.271-48.854
		c0.037-8.646,0.239-17.303-0.064-25.939c-0.357-10.174,2.587-18.955,9.678-26.301c8.105-7.559,15.76-15.553,23.449-23.535
		c7.157-7.432,16.683-9.125,26.752-7.77c-0.479,2.463,1.513,3.533,2.863,4.893c9.739,9.795,19.514,19.555,29.292,29.313
		c1.911,1.906,3.715,3.84,3.719,6.777c-1.814,0.107-3.628,0.305-5.443,0.307c-12.292,0.021-24.584-0.088-36.875,0.025
		c-7.485,0.07-11.645,4.354-11.759,11.852c-0.091,5.979-0.124,11.963,0.005,17.939c0.149,6.9,4.39,11.297,11.209,11.365
		c10.293,0.104,20.589-0.076,30.885-0.137c8.812,0.059,17.625,0.24,26.434,0.117c4.162-0.059,7.894,0.756,11.212,3.286
		c2.539,3.299,3.42,7.029,3.24,11.166c-0.18,4.131-0.226,8.287-0.008,12.414c0.324,6.131-1.662,10.979-7.013,14.242
		c-0.556-0.098-1.078-0.127-1.233,0.6c0,0,0.022-0.229,0.025-0.225c-11.566,0.17-23.134,0.334-34.703,0.498
		c-9.94-0.07-19.883-0.326-29.819-0.143c-5.88,0.109-10.046,4.643-10.219,10.717c-0.183,6.461-0.091,12.932-0.019,19.398
		c0.037,3.266,1.017,6.18,3.927,8.104c1.88,2.189,4.39,2.902,7.133,2.896c8.325-0.018,16.649-0.09,24.973-0.143
		c11.141,0.064,22.281,0.168,33.422,0.18c8.74,0.01,16.237,2.949,22.43,9.156c8.106,8.127,16.268,16.199,24.313,24.385
		c2.471,2.514,4.769,5.334-0.27,7.73c-2.824,0.107-5.647,0.309-8.472,0.311c-30.965,0.014-61.931-0.063-92.896,0.027
		c-9.867,0.027-18.106-3.225-24.978-10.402c-7.135-7.455-14.532-14.662-21.895-21.895c-6.285-6.176-9.208-13.695-9.344-22.395
		C-289.971,457.717-290.018,451.063-290.091,444.408z"/>
	<path fill-rule="evenodd" clip-rule="evenodd" fill="#FEFEFE" d="M-194.131,352.991c-0.003-2.938-1.808-4.871-3.719-6.777
		c-9.778-9.758-19.553-19.518-29.292-29.313c-1.35-1.359-3.341-2.43-2.863-4.893c31.615-0.104,63.229-0.223,94.844-0.275
		c2.13-0.004,4.534,0.154,5.563,2.52c0.762,1.752-0.365,3.309-1.521,4.465c-9.409,9.414-18.854,18.791-28.375,28.092
		c-1.392,1.357-3.24,2.25-4.878,3.359C-173.978,354.421-184.118,353.042-194.131,352.991z"/>
	<path fill-rule="evenodd" clip-rule="evenodd" fill="#005E73" d="M-40.208,394.327c-10.481,0.063-20.965,0.27-31.443,0.137
		c-6.261-0.078-10.478-4.479-10.663-10.848c-0.18-6.154-0.134-12.318-0.027-18.475c0.136-7.852,4.102-11.811,12.073-11.85
		c17.477-0.086,34.956-0.148,52.432,0.041c6.744,0.074,13.261-0.525,19.509-3.164c0.255,2.412-1.72,3.463-3.063,4.828
		C-14.307,368.128-27.263,381.222-40.208,394.327z"/>
	<path fill-rule="evenodd" clip-rule="evenodd" fill="#005E73" d="M-194.131,352.991c10.013,0.051,20.153,1.43,29.759-2.822
		c1.288,2.453-1.214,3.047-2.249,4.098c-11.89,12.064-23.895,24.018-35.848,36.021c-1.281,1.285-2.431,2.699-3.641,4.055
		c-10.294,0.061-20.59,0.24-30.884,0.137c-6.819-0.068-11.06-4.465-11.209-11.365c-0.129-5.977-0.097-11.961-0.005-17.939
		c0.114-7.498,4.274-11.781,11.759-11.852c12.291-0.113,24.583-0.004,36.875-0.025
		C-197.759,353.296-195.945,353.099-194.131,352.991z"/>
	<path fill-rule="evenodd" clip-rule="evenodd" fill="#005E73" d="M-120.071,350.411c-0.366,0.695-0.732,1.391-1.098,2.086
		C-121.084,351.653-121.036,350.79-120.071,350.411z"/>
	<path fill-rule="evenodd" clip-rule="evenodd" fill="#005E73" d="M1.604,350.292c0.705-0.441,1.411-0.885,2.116-1.328
		C3.423,350.058,2.612,350.331,1.604,350.292z"/>
	<path fill-rule="evenodd" clip-rule="evenodd" fill="#005E73" d="M1.519,516.191c0.155-0.807,0.708-0.852,1.359-0.709
		C2.426,515.719,1.972,515.955,1.519,516.191z"/>
	<path fill-rule="evenodd" clip-rule="evenodd" fill="#D0D1D1" d="M-56.84,477.629c0.465,2.738,2.032,4.74,3.979,6.662
		c9.913,9.787,19.738,19.664,29.571,29.531c1.379,1.385,3.151,2.537,3.282,4.791c-7.615,1.141-15.271,0.32-22.907,0.447
		c-8.827,0.148-17.659,0.035-26.488-0.004c-7.608-0.033-14.639-2.178-20.151-7.416c-9.294-8.832-18.232-18.043-27.21-27.203
		c-1.138-1.16-3.284-2.314-2.19-4.537c1.012-2.057,3.138-2.381,5.171-2.381C-94.802,477.529-75.821,477.586-56.84,477.629z"/>
	<path fill-rule="evenodd" clip-rule="evenodd" fill="#00394F" d="M-208.155,436.441c11.568-0.164,23.137-0.328,34.703-0.498
		c-0.053,2.139-1.896,3.029-3.115,4.301c-11.845,12.367-23.734,24.691-35.611,37.027c-8.324,0.053-16.648,0.125-24.973,0.143
		c-2.743,0.006-5.253-0.707-7.133-2.896c0.107-2.264,1.891-3.41,3.28-4.762c9.821-9.549,19.698-19.041,29.512-28.598
		C-210.112,439.814-208.267,438.717-208.155,436.441z"/>
	<path fill-rule="evenodd" clip-rule="evenodd" fill="#00394F" d="M-173.477,436.168c0.155-0.727,0.677-0.697,1.233-0.6
		C-172.655,435.768-173.066,435.967-173.477,436.168z"/>
	<path fill-rule="evenodd" clip-rule="evenodd" fill="#005E73" d="M-208.155,436.441c-0.112,2.275-1.957,3.373-3.337,4.717
		c-9.814,9.557-19.69,19.049-29.512,28.598c-1.39,1.352-3.173,2.498-3.28,4.762c-2.911-1.924-3.891-4.838-3.927-8.104
		c-0.072-6.467-0.164-12.938,0.019-19.398c0.172-6.074,4.339-10.607,10.219-10.717
		C-228.038,436.115-218.095,436.371-208.155,436.441z"/>
</g>
</svg>
